<svg width="211" height="43" viewBox="0 0 211 43" fill="none" xmlns="http://www.w3.org/2000/svg">
<g clip-path="url(#clip0_265_25822)">
<path d="M13.7793 17.6939L21.9282 9.54833L30.0803 17.7005L34.8192 12.9583L21.9282 0.0639648L9.03711 12.955L13.7793 17.6939Z" fill="#4A4B4D"/>
<path d="M0.947266 21.0433L5.68771 16.3028L10.4282 21.0433L5.68771 25.7837L0.947266 21.0433Z" fill="#4A4B4D"/>
<path d="M13.7801 24.3915L21.9289 32.5404L30.0811 24.3882L34.8233 29.1237L34.82 29.127L21.9289 42.0214L9.03788 29.1337L9.03125 29.127L13.7801 24.3915Z" fill="#4A4B4D"/>
<path d="M33.4219 21.0444L38.1623 16.304L42.9028 21.0444L38.1623 25.7849L33.4219 21.0444Z" fill="#4A4B4D"/>
<path d="M26.7368 21.0408L21.9284 16.229L18.3726 19.7848L17.9616 20.1924L17.1199 21.0341L17.1133 21.0408L17.1199 21.0507L21.9284 25.8559L26.7368 21.0441L26.7401 21.0408H26.7368Z" fill="#4A4B4D"/>
<path d="M50.2988 10.2306H60.6117C63.17 10.2306 65.1053 10.8934 66.4176 12.2189C66.912 12.7086 67.3018 13.2936 67.5633 13.9384C67.8247 14.5833 67.9525 15.2745 67.9387 15.9703V16.0332C67.9476 16.6031 67.8682 17.171 67.7034 17.7167C67.5566 18.1864 67.3434 18.6328 67.0704 19.0422C66.8159 19.4284 66.508 19.7765 66.1558 20.0762C65.8117 20.3723 65.4348 20.6281 65.0324 20.8384C66.1928 21.2425 67.2362 21.9253 68.0712 22.8267C68.8091 23.6662 69.1781 24.8261 69.1781 26.3063V26.3692C69.199 27.2937 68.9979 28.2097 68.5915 29.0402C68.1977 29.8055 67.6205 30.4613 66.9114 30.949C66.1097 31.4865 65.217 31.8739 64.2768 32.0923C63.1598 32.3572 62.0147 32.4852 60.8668 32.4734H50.2988V10.2306ZM59.5777 19.2245C60.47 19.2676 61.3579 19.0756 62.1526 18.6678C62.4626 18.4867 62.7156 18.2225 62.8831 17.9051C63.0506 17.5876 63.1259 17.2296 63.1004 16.8716V16.8087C63.1168 16.4788 63.0498 16.1501 62.9056 15.853C62.7614 15.5558 62.5446 15.2998 62.2752 15.1086C61.7251 14.7176 60.9309 14.5221 59.8926 14.5221H55.0675V19.2245H59.5777ZM60.8801 28.1886C61.769 28.2384 62.6538 28.035 63.4318 27.602C63.7348 27.4073 63.9802 27.1349 64.1422 26.8132C64.3042 26.4914 64.377 26.1322 64.353 25.7727V25.7098C64.365 25.3681 64.293 25.0288 64.1434 24.7214C63.9937 24.4141 63.771 24.1481 63.4948 23.9468C62.9248 23.5049 62.0035 23.284 60.731 23.284H55.0675V28.1886H60.8801Z" fill="#4A4B4D"/>
<path d="M75.3223 10.2306H80.2169V32.4801H75.3223V10.2306Z" fill="#4A4B4D"/>
<path d="M87.623 10.2308H92.1366L102.569 23.9238V10.2308H107.4V32.4803H103.235L92.4613 18.3366V32.4803H87.623V10.2308Z" fill="#4A4B4D"/>
<path d="M122.221 10.0716H126.728L136.262 32.4801H131.152L129.117 27.4894H119.709L117.674 32.4801H112.684L122.221 10.0716ZM127.371 23.1681L124.408 15.9504L121.459 23.1681H127.371Z" fill="#4A4B4D"/>
<path d="M141.553 10.2308H146.066L156.492 23.9238V10.2308H161.323V32.4803H157.158L146.384 18.3366V32.4803H141.553V10.2308Z" fill="#4A4B4D"/>
<path d="M178.941 32.8713C177.381 32.8847 175.834 32.5826 174.394 31.9832C173.038 31.4233 171.808 30.5977 170.776 29.5551C169.744 28.5124 168.932 27.2738 168.386 25.9121C167.81 24.4879 167.519 22.9647 167.528 21.4284V21.3655C167.502 18.3373 168.667 15.4203 170.772 13.2431C171.808 12.1796 173.048 11.3365 174.417 10.7643C175.907 10.1472 177.507 9.83937 179.12 9.85964C180.074 9.85253 181.026 9.93798 181.963 10.1148C182.765 10.2665 183.549 10.5008 184.303 10.814C184.987 11.1019 185.637 11.4642 186.241 11.8944C186.831 12.3139 187.386 12.7817 187.898 13.2928L184.787 16.8851C183.991 16.1515 183.099 15.5305 182.135 15.0393C181.188 14.5865 180.149 14.3596 179.1 14.3765C178.226 14.3672 177.361 14.5438 176.561 14.8946C175.761 15.2454 175.045 15.7624 174.46 16.4112C173.881 17.0584 173.427 17.808 173.122 18.6216C172.802 19.4814 172.642 20.392 172.648 21.3091V21.3721C172.645 22.2879 172.805 23.197 173.122 24.0564C173.423 24.8729 173.872 25.6267 174.447 26.28C175.027 26.9369 175.742 27.4614 176.542 27.8182C177.343 28.175 178.21 28.3556 179.087 28.3478C180.203 28.383 181.31 28.1429 182.311 27.6486C183.264 27.1292 184.145 26.4875 184.932 25.7398L188.047 28.888C187.497 29.485 186.902 30.0389 186.268 30.545C185.644 31.0379 184.967 31.4592 184.25 31.8009C183.485 32.1609 182.679 32.4269 181.85 32.5929C180.893 32.785 179.918 32.8782 178.941 32.8713Z" fill="#4A4B4D"/>
<path d="M193.824 10.2308H210.569V14.5852H198.639V19.0988H209.144V23.4532H198.656V28.1258H210.735V32.4803H193.834L193.824 10.2308Z" fill="#4A4B4D"/>
</g>
<defs>
<clipPath id="clip0_265_25822">
<rect width="209.783" height="41.9572" fill="white" transform="translate(0.949219 0.0639648)"/>
</clipPath>
</defs>
</svg>
