<svg width="192" height="47" viewBox="0 0 192 47" fill="none" xmlns="http://www.w3.org/2000/svg">
<path d="M33.707 46.085H11.1826L0 34.6045V11.5615L11.2627 0H33.707L44.9697 11.4805L33.707 23.043L33.6279 23.042L22.4453 11.5615L11.2627 23.124L22.4453 34.6045L33.707 23.043H33.7871L44.8906 34.6045L33.707 46.085ZM82.0879 23.9385L82.2461 24.0195L82.3262 24.1006L84.7051 15.7959H89.4639L83.7529 32.6504C83.2771 33.7086 82.7224 34.6042 82.0088 35.3369C81.295 36.0697 80.1845 36.3955 78.6777 36.3955C78.2812 36.3955 77.9635 36.3959 77.7256 36.3145C77.4877 36.3144 77.0911 36.2331 76.5361 36.0703L77.0908 32.8135H77.3291L77.5674 32.8945C78.2809 32.8945 78.757 32.8135 79.0742 32.5693C79.3915 32.3251 79.6295 31.9989 79.7881 31.5918L80.1055 30.6143L75.1084 15.7148H79.8672L82.0879 23.9385ZM98.3467 15.6328C100.091 15.6328 101.519 16.3659 102.471 17.75C103.502 19.3784 103.978 21.333 103.898 23.2871V23.4492C103.898 25.6476 103.422 27.4394 102.471 28.7422C101.519 30.0448 100.012 30.7773 98.3467 30.7773C97.0777 30.7773 95.8878 30.2075 95.0947 29.2305V36.1514H90.6533V15.877H94.8574L95.0156 17.5059C95.7294 16.2846 96.9984 15.5514 98.3467 15.6328ZM185.431 15.6328C187.334 15.6328 188.842 16.0399 190.031 16.9355C191.062 17.6683 191.696 18.9713 191.696 20.3555L187.335 20.4375C187.335 19.8675 187.176 19.4595 186.858 19.1338C186.541 18.8084 186.145 18.6456 185.511 18.6455C185.035 18.6455 184.638 18.727 184.32 19.0527C184.003 19.297 183.845 19.6232 183.845 20.0303C183.845 20.4372 184.083 20.7626 184.4 21.0068C185.114 21.4139 185.828 21.6588 186.621 21.7402C188.049 21.9845 189.317 22.473 190.507 23.2871C191.379 24.0199 191.856 25.0785 191.776 26.2998C191.776 27.6024 191.221 28.7425 190.031 29.5566C188.683 30.4522 187.097 30.9407 185.511 30.8594C183.528 30.8594 182.021 30.37 180.91 29.3115C179.8 28.3346 179.245 27.1137 179.245 25.8926L183.29 25.8105C183.29 26.5432 183.527 27.0321 183.924 27.2764C184.32 27.6021 184.876 27.7646 185.59 27.7646C186.145 27.7646 186.62 27.6835 186.938 27.4395C187.255 27.2766 187.414 26.9504 187.414 26.4619V26.3809C187.414 26.3809 187.176 25.729 186.858 25.4033C186.145 24.9963 185.431 24.7523 184.638 24.6709C183.29 24.4266 181.941 23.9381 180.831 23.124C179.959 22.3912 179.562 21.3323 179.562 20.1924C179.562 18.8898 180.117 17.6683 181.148 16.9355C182.179 16.0402 183.686 15.6329 185.431 15.6328ZM57.8184 15.7148C59.6425 15.7148 61.0703 16.2032 62.1807 17.2617C63.2909 18.3201 63.8458 19.9483 63.7666 21.4951L59.6426 21.5771C59.6426 21.0073 59.4842 20.3557 59.167 19.8672C58.8497 19.4601 58.4529 19.2158 57.8184 19.2158C56.946 19.2158 56.3905 19.5416 56.0732 20.2744C55.6768 21.17 55.5184 22.1471 55.5977 23.124V23.4492C55.5977 24.6705 55.756 25.6481 56.0732 26.3809C56.3905 27.0322 57.0253 27.3574 57.8184 27.3574L57.8975 27.2764C58.4526 27.2764 58.9288 27.1137 59.2461 26.7881C59.5633 26.4624 59.7217 25.9736 59.7217 25.3223H63.8457C63.925 26.8692 63.2909 28.3345 62.1807 29.3115C60.991 30.37 59.4837 30.8594 57.8975 30.8594C55.6769 30.8593 54.0119 30.1259 52.8223 28.8232C51.6326 27.2762 50.9185 25.4033 51.0771 23.4492V23.124C51.0771 20.9256 51.6326 19.1342 52.8223 17.75C54.0119 16.366 55.6771 15.7149 57.8184 15.7148ZM111.195 15.7959H113.654V18.9717H111.195V25.7295C111.195 26.218 111.275 26.6249 111.513 26.8691C111.751 27.1134 112.068 27.1953 112.306 27.1953C112.781 27.1953 113.178 27.1946 113.574 27.1133L113.892 30.5332C113.019 30.7774 112.068 30.8594 111.116 30.8594C109.609 30.8594 108.499 30.4518 107.785 29.6377C106.992 28.8235 106.595 27.6018 106.595 25.8105V19.0527H104.612V15.877H106.595V12.2139H111.116L111.195 12.1318V15.7959ZM152.12 15.5518C154.103 15.5518 155.609 16.1217 156.72 17.3428C157.909 18.6454 158.465 20.4367 158.386 22.1465V24.5898H150.138C150.296 25.4039 150.534 26.0555 151.089 26.5439C151.565 27.0324 152.279 27.2764 153.072 27.2764C154.42 27.2763 155.768 27.0321 157.037 26.3809L158.068 29.1494C157.355 29.6379 156.482 30.0445 155.609 30.3701C154.578 30.6957 153.548 30.8594 152.438 30.8594V30.7773C150.296 30.7773 148.63 30.1263 147.361 28.7422C146.092 27.358 145.379 25.485 145.458 23.6123V23.124C145.458 20.8442 146.013 19.0531 147.203 17.6689C148.393 16.2848 149.979 15.5518 152.12 15.5518ZM121.664 15.5518C123.805 15.5518 125.551 16.2848 126.74 17.6689C128.009 19.1345 128.644 21.0889 128.564 23.043V23.3682C128.564 25.5666 127.93 27.358 126.74 28.7422C125.551 30.1263 123.805 30.7773 121.664 30.7773C119.523 30.7773 117.778 30.0449 116.509 28.7422C115.24 27.2766 114.605 25.3223 114.685 23.3682V23.043H114.765C114.685 21.0888 115.32 19.1345 116.589 17.6689C117.778 16.2849 119.523 15.5518 121.664 15.5518ZM138.954 15.5518C140.382 15.5518 141.492 16.0401 142.285 16.9355C143.078 17.9126 143.476 19.3785 143.476 21.4141V30.5332H139.033V21.4141C139.033 20.5999 138.875 19.9487 138.558 19.623C138.24 19.2974 137.765 19.1338 137.051 19.1338C136.337 19.1338 135.623 19.4603 135.147 20.0303V30.6143H130.706V15.877H134.757L134.909 17.8311C135.385 17.0984 135.941 16.5291 136.654 16.1221C137.368 15.715 138.161 15.4704 138.954 15.5518ZM72.9668 15.5518C73.3634 15.5518 73.7605 15.552 74.2363 15.7148L73.7598 19.8672H72.0947C71.6189 19.8672 71.1424 19.9485 70.8252 20.1113C70.5081 20.2742 70.2699 20.5182 70.1113 20.8438V30.5332H65.6699V15.7959H69.874L70.0322 17.9941C70.2701 17.2615 70.6667 16.6916 71.2217 16.2031C71.6975 15.7961 72.3324 15.5518 72.9668 15.5518ZM164.73 24.3457H164.81L167.189 15.7959H170.045L172.503 24.3457H172.662L174.169 15.7959H178.293L174.883 30.5332H171.075L168.696 22.7168H168.617L166.237 30.5332H162.431L159.021 15.7959H163.145L164.73 24.3457ZM97.2363 19.0527C96.7607 19.0527 96.285 19.1342 95.9678 19.2969C95.6505 19.4597 95.3325 19.7856 95.1738 20.1113V26.2998C95.1776 26.3043 95.6518 26.87 95.9678 27.0322C96.3642 27.195 96.8399 27.2764 97.2363 27.2764C98.0294 27.2764 98.5851 26.9511 98.9023 26.2998C99.2989 25.4042 99.4572 24.5082 99.3779 23.5312V23.2871L99.457 23.2051C99.457 21.9839 99.2989 20.9251 98.9023 20.1924C98.5851 19.4597 97.9501 19.0527 97.2363 19.0527ZM121.664 19.0527C120.792 19.0528 120.157 19.3786 119.761 20.1113C119.364 20.8441 119.206 21.8211 119.206 22.9609V23.2871C119.206 24.5082 119.364 25.4851 119.761 26.2178C120.157 26.9505 120.792 27.2763 121.664 27.2764C122.536 27.2764 123.171 26.9505 123.567 26.2178C123.964 25.485 124.123 24.5083 124.123 23.2871V22.9609C124.123 21.9839 123.964 21.0069 123.567 20.1113C123.171 19.3787 122.536 19.0527 121.664 19.0527ZM152.12 19.0527C151.486 19.0527 151.01 19.2968 150.692 19.7852C150.375 20.2737 150.217 20.8441 150.138 21.6582H154.023V21.333C154.023 20.6004 153.865 20.0301 153.548 19.623C153.231 19.2159 152.834 19.0527 152.12 19.0527ZM134.909 15.877H134.757L134.751 15.7959L134.909 15.877Z" fill="#4A4B4D"/>
</svg>
