<svg width="171" height="43" viewBox="0 0 171 43" fill="none" xmlns="http://www.w3.org/2000/svg">
<g clip-path="url(#clip0_265_25788)">
<path d="M6.9438 4.23859C9.72462 3.879 12.2731 2.28681 13.9579 0.064977C15.0759 0.105802 16.2269 -0.0198136 17.3245 0.123075C18.9229 2.26013 21.3521 3.75967 23.9884 4.19305C25.612 4.47883 27.289 4.34222 28.8797 3.93396C28.3285 7.67105 26.5462 11.1616 24.0371 13.9613C22.6113 15.5896 20.95 16.9981 19.1867 18.2496C19.7976 17.4094 20.1728 16.3842 20.0927 15.3352C20.0597 13.5248 18.7659 11.8603 17.0654 11.2857C15.1874 10.5963 12.9184 11.4113 11.8649 13.1009C10.9557 14.4434 10.9117 16.2883 11.7094 17.6921C12.0564 18.3312 12.6013 18.8305 13.165 19.2748C13.0221 20.082 12.942 20.8953 12.8101 21.704C8.34134 23.5097 3.52389 24.4989 -1.30135 24.4424C-3.75402 18.573 -4.28161 12.0519 -3.64096 5.76954C-2.01109 5.0331 -0.367081 4.32809 1.27378 3.61679C3.09052 4.22446 5.036 4.5275 6.9438 4.23859Z" fill="#4A4B4D"/>
<path d="M146.771 9.93852C147.921 9.84274 149.091 9.84116 150.241 9.93852C150.227 11.0031 150.236 12.0677 150.235 13.1323C149.082 13.1323 147.93 13.1323 146.777 13.1323C146.774 12.0677 146.783 11.0031 146.771 9.93852Z" fill="#4A4B4D"/>
<path d="M117.723 10.0908C120.026 10.0987 122.331 10.0924 124.637 10.094C125.795 10.0971 126.984 10.0594 128.099 10.4316C129.682 10.9026 131.016 12.0614 131.764 13.5264C132.877 15.6854 133.04 18.2073 132.751 20.583C132.443 22.7498 131.653 24.9859 129.95 26.4492C128.796 27.4605 127.253 27.9504 125.734 27.9645C123.065 27.9959 120.394 27.9598 117.724 27.9833C117.724 22.0182 117.727 16.0545 117.723 10.0908ZM121.363 13.1481C121.346 17.0641 121.358 20.9818 121.356 24.8994C122.606 24.9261 123.857 24.9011 125.108 24.9135C126.205 24.9591 127.281 24.3735 127.908 23.4847C128.854 22.1814 129.075 20.5123 129.104 18.9437C129.079 17.4127 128.975 15.7593 128.047 14.4733C127.39 13.5437 126.219 13.137 125.117 13.1417C123.864 13.1449 122.612 13.137 121.363 13.1481Z" fill="#4A4B4D"/>
<path d="M152.388 10.1093C153.542 10.1203 154.696 10.1077 155.85 10.1155C155.829 16.0745 155.883 22.0349 155.823 27.9939C154.678 27.9641 153.534 27.9703 152.39 27.9892C152.383 22.0287 152.389 16.0698 152.388 10.1093Z" fill="#4A4B4D"/>
<path d="M135.388 15.4174C136.395 14.6495 137.695 14.4722 138.922 14.3921C140.498 14.3433 142.195 14.5161 143.518 15.4488C144.437 16.091 144.866 17.2137 144.88 18.3066C144.903 20.8754 144.87 23.4459 144.894 26.0162C144.893 26.6082 145.086 27.2568 145.652 27.5425C145.644 27.6902 145.639 27.8392 145.635 27.9885C144.396 27.9728 143.157 27.9664 141.918 27.99C141.729 27.4844 141.625 26.9521 141.56 26.4166C140.706 27.3682 139.565 28.1 138.275 28.257C136.81 28.5208 135.123 28.2004 134.101 27.0479C132.593 25.1841 133.06 21.9008 135.281 20.7953C136.985 19.9663 138.955 20.1438 140.75 19.6475C141.069 19.5596 141.268 19.2927 141.446 19.032C141.47 18.5343 141.463 17.9611 141.032 17.6251C140.319 17.0472 139.304 17.1022 138.446 17.2215C137.598 17.3613 137.054 18.1731 136.991 18.9912C135.878 18.9944 134.765 18.988 133.651 18.9944C133.79 17.6613 134.257 16.2339 135.388 15.4174ZM137.431 22.7644C136.726 23.1804 136.588 24.1037 136.776 24.8371C136.98 25.4715 137.652 25.886 138.307 25.8624C139.61 25.9205 141.039 25.1276 141.409 23.8243C141.521 23.0706 141.428 22.3043 141.48 21.5459C140.234 22.2792 138.676 22.0484 137.431 22.7644Z" fill="#4A4B4D"/>
<path d="M146.782 14.7343C147.931 14.7421 149.079 14.7421 150.229 14.7343C150.238 19.1592 150.238 23.584 150.229 28.0088C149.081 27.9994 147.931 27.9978 146.783 28.0088C146.772 23.584 146.774 19.1592 146.782 14.7343Z" fill="#4A4B4D"/>
<path d="M157.039 14.7168C158.318 14.7575 159.597 14.7387 160.877 14.7293C161.754 17.6939 162.606 20.6663 163.471 23.634C163.573 23.9402 163.577 24.295 163.804 24.5479C164.729 21.2723 165.617 17.9875 166.558 14.7183C167.773 14.7607 168.992 14.7356 170.209 14.7309C168.436 19.7195 166.696 24.7205 164.955 29.7201C164.52 30.7847 164.14 31.9624 163.226 32.7223C162.662 33.1746 161.915 33.2185 161.235 33.341C160.471 33.2923 159.704 33.3253 158.942 33.2515C158.965 32.3455 158.95 31.4379 158.954 30.5319C159.663 30.5649 160.445 30.6591 161.088 30.276C161.631 29.896 161.82 29.1956 161.912 28.5723C160.329 23.9417 158.631 19.3457 157.039 14.7168Z" fill="#4A4B4D"/>
<path d="M30.6365 3.98718C31.987 4.64039 33.3719 5.23236 34.7662 5.78036C35.4602 12.0486 34.8399 18.5445 32.4533 24.4156C30.6931 28.776 27.9059 32.7031 24.4421 35.8749C21.8057 38.2962 18.8003 40.2951 15.6332 41.9516C15.3521 41.9233 15.1229 41.7083 14.8686 41.5953C11.736 39.9386 8.82954 37.8581 6.24492 35.4338C3.94771 33.1883 1.91272 30.6508 0.366066 27.8276C0.0645858 27.2953 -0.200787 26.741 -0.519531 26.2181C3.09352 26.2355 6.70342 25.6278 10.1595 24.5836C10.9493 24.312 11.7705 24.1094 12.5132 23.7168C12.3687 24.9668 12.0375 26.2151 12.1411 27.4791C12.5383 27.8795 13.0188 28.3144 13.628 28.2673C14.8827 28.2689 16.1388 28.2673 17.395 28.2673C18.0089 28.3175 18.4926 27.8779 18.8804 27.4617C18.9998 26.5809 18.7846 25.711 18.6794 24.8426C18.5506 23.5551 18.2649 22.2832 18.2272 20.9878C22.8719 18.2007 26.967 14.2343 29.1966 9.23325C29.8985 7.55627 30.4419 5.80235 30.6365 3.98718Z" fill="#4A4B4D"/>
<path d="M47.1115 10.5312C49.4401 9.41792 52.2335 9.38808 54.6014 10.4024C56.2548 11.1263 57.602 12.5489 58.1939 14.2605C58.3823 14.7849 58.4829 15.336 58.6148 15.8778C57.4073 15.8589 56.1998 15.851 54.9923 15.8825C54.7097 14.7221 54.0173 13.5994 52.8835 13.1158C51.6478 12.618 50.164 12.596 48.9863 13.2681C47.9672 13.8631 47.2198 14.865 46.8586 15.9829C46.3797 17.3742 46.43 18.8705 46.5006 20.3183C46.6216 21.6168 47.0156 22.9375 47.8699 23.9471C49.4306 25.8345 52.8364 25.7889 54.2276 23.7257C54.6296 23.1871 54.8352 22.5386 55.0095 21.8979C56.2077 21.9136 57.4073 21.9089 58.6069 21.9011C58.3322 22.917 58.0307 23.9345 57.4984 24.8483C56.7306 26.2396 55.4461 27.3214 53.9591 27.8772C52.0089 28.5838 49.8232 28.5682 47.8699 27.8836C45.9259 27.246 44.3808 25.6743 43.624 23.7931C42.506 20.9213 42.4433 17.6286 43.467 14.7221C44.1202 12.9446 45.4046 11.3791 47.1115 10.5312Z" fill="#4A4B4D"/>
<path d="M96.6236 11.1942C97.7526 11.2083 98.8831 11.2068 100.014 11.1958C100.006 12.397 100.014 13.5998 100.007 14.8026C100.725 14.801 101.444 14.8135 102.162 14.7853C102.209 15.5689 102.187 16.3571 102.195 17.1422C101.466 17.1281 100.738 17.139 100.01 17.1264C100.007 19.5117 100.014 21.8983 100.006 24.2851C99.9995 24.6587 100.043 25.0325 100.102 25.4015C100.785 25.5852 101.49 25.6543 102.195 25.5758C102.17 26.386 102.236 27.1994 102.159 28.0064C101.085 28.1336 99.9807 28.1336 98.9082 27.9861C98.1498 27.8887 97.3365 27.5887 96.9502 26.8821C96.6597 26.2714 96.6267 25.5758 96.6346 24.9116C96.6393 22.3145 96.6283 19.7189 96.6393 17.1234C96.0426 17.1359 95.4459 17.1281 94.8493 17.1516C94.8838 16.365 94.8853 15.5766 94.8477 14.79C95.4459 14.8057 96.0442 14.801 96.6424 14.8057C96.6267 13.6014 96.6441 12.3986 96.6236 11.1942Z" fill="#4A4B4D"/>
<path d="M63.5704 16.2789C63.9912 15.5425 64.6318 14.8815 65.4609 14.6287C66.0638 14.401 66.7171 14.4591 67.3483 14.4576C67.3372 15.6006 67.3451 16.7438 67.3498 17.8869C66.3842 17.857 65.3416 17.7503 64.4701 18.2527C63.9739 18.4899 63.6614 18.953 63.3599 19.3926C63.0287 20.2547 63.1212 21.1874 63.1118 22.0903C63.1135 24.039 63.1056 25.9892 63.115 27.9394C61.9907 27.9283 60.8665 27.9283 59.7437 27.9394C59.7548 23.5521 59.7579 19.165 59.7422 14.7779C60.8194 14.7967 61.8981 14.7967 62.9769 14.7779C62.9705 15.5049 62.9737 16.2318 62.958 16.9589C63.3049 16.896 63.4008 16.5365 63.5704 16.2789Z" fill="#4A4B4D"/>
<path d="M85.2676 16.6725C85.748 15.6707 86.676 14.9092 87.7501 14.6281C89.4239 14.1838 91.352 14.5778 92.6208 15.7854C93.3682 16.47 93.8613 17.387 94.1596 18.348C94.8222 20.529 94.6951 22.9361 93.8613 25.0543C93.2819 26.4282 92.1717 27.6342 90.6942 28.0236C89.4348 28.4429 88.0657 28.3078 86.8487 27.8132L86.8833 27.7127C86.2851 27.5132 85.7386 27.0155 85.5564 26.4015C85.456 26.3779 85.255 26.3293 85.1545 26.3058C85.2989 27.4567 85.2157 28.6171 85.2361 29.7728C85.2173 30.8971 85.2817 32.0245 85.1922 33.1471C84.0788 33.1158 82.9641 33.1283 81.8492 33.1409C81.8696 27.0233 81.8727 20.9059 81.8477 14.7883C82.9075 14.8071 83.969 14.8213 85.0289 14.7789C85.1121 15.418 85.0744 16.0633 84.9676 16.6976L85.2676 16.6725ZM86.9257 17.4937C86.4797 17.7795 86.0055 18.0669 85.7449 18.5474C85.0038 19.6858 85.0539 21.1084 85.1089 22.4116C85.1529 23.5579 85.7763 24.668 86.7608 25.2694C87.524 25.5866 88.3655 25.5599 89.168 25.4311C89.887 25.0465 90.4257 24.4247 90.7649 23.6882C91.2704 22.2075 91.2689 20.5635 90.7585 19.0844C90.3911 18.4076 89.8746 17.7497 89.1286 17.4781C88.4173 17.1875 87.6448 17.3194 86.9257 17.4937Z" fill="#4A4B4D"/>
<path d="M106.759 14.8699C108.822 14.1697 111.201 14.3376 113.091 15.4478C114.331 16.1685 115.197 17.4106 115.627 18.7625C116.169 20.5494 116.169 22.5058 115.531 24.2692C114.932 25.9964 113.484 27.3468 111.743 27.8823C109.874 28.5009 107.765 28.3941 105.989 27.5337C104.683 26.9103 103.654 25.7672 103.132 24.4215C102.405 22.3928 102.351 20.0689 103.227 18.0763C103.87 16.5627 105.201 15.3818 106.759 14.8699ZM106.387 19.0797C105.952 20.4049 105.887 21.8636 106.272 23.2094C106.506 24.1012 107.14 24.8534 107.957 25.2726C108.899 25.5364 109.968 25.6133 110.855 25.1313C111.43 24.8785 111.79 24.3493 112.115 23.8374C112.705 22.3865 112.655 20.7269 112.27 19.2304C111.958 18.5819 111.543 17.9397 110.893 17.5896C110.166 17.1781 109.291 17.2269 108.492 17.3147C107.53 17.4781 106.823 18.2538 106.387 19.0797Z" fill="#4A4B4D"/>
<path d="M67.9492 14.7917C69.2086 14.8105 70.4694 14.8058 71.7303 14.7948C72.2029 16.6147 72.7776 18.4063 73.2754 20.2199C73.6852 21.6581 74.1625 23.0807 74.4892 24.541C74.5629 24.5395 74.709 24.538 74.7813 24.5363C75.604 21.2703 76.587 18.042 77.4584 14.787C78.6376 14.8121 79.8185 14.8105 80.9993 14.7885C80.6978 15.5234 80.4827 16.2912 80.1844 17.0276C79.8279 18.0765 79.4808 19.1302 79.0898 20.168C78.6753 21.3755 78.2687 22.5878 77.8306 23.7873C77.4631 24.8363 77.1146 25.8946 76.733 26.9387C76.3624 27.9814 76.0326 29.0366 75.6322 30.0682C75.2005 31.1108 74.7781 32.312 73.7229 32.8788C72.5202 33.3923 71.1713 33.2636 69.8964 33.2415C69.9167 32.3591 69.9309 31.4767 69.8853 30.5958C70.5354 30.6571 71.22 30.679 71.8308 30.4105C72.6127 29.9379 72.9802 28.8953 72.7039 28.0316C72.3333 27.1601 72.0632 26.251 71.7397 25.3623C71.4539 24.6352 71.2184 23.8894 70.9562 23.1546C70.0596 20.6453 69.1662 18.1346 68.2916 15.6176C68.1785 15.3412 68.0639 15.0664 67.9492 14.7917Z" fill="#4A4B4D"/>
</g>
<defs>
<clipPath id="clip0_265_25788">
<rect width="174.293" height="42.0423" fill="white" transform="translate(-4 0.0213623)"/>
</clipPath>
</defs>
</svg>
