<svg width="189" height="32" viewBox="0 0 189 32" fill="none" xmlns="http://www.w3.org/2000/svg">
<g clip-path="url(#clip0_265_25811)">
<path d="M29.5941 17.6825C29.216 21.1598 27.6484 24.3876 25.1694 26.7937C22.6903 29.1999 19.4599 30.6287 16.0507 30.8272C12.6416 31.0256 9.27405 29.9806 6.54503 27.8777C3.81601 25.7748 1.90181 22.7496 1.14182 19.3384C0.381826 15.9273 0.825116 12.3507 2.39311 9.24259C3.9611 6.13443 6.5525 3.69557 9.7079 2.35836C12.8633 1.02115 16.3789 0.87197 19.6314 1.93728C22.8838 3.00259 25.6631 5.21355 27.4765 8.17822L22.9447 11.4766C20.9111 8.39535 18.0739 6.91991 15.1941 6.91991C10.4929 6.91991 6.80823 10.9994 6.80823 16.0336C6.80823 21.0679 10.5352 25.104 15.1941 25.104C19.3872 25.104 22.902 21.9783 23.7072 17.6827L29.5941 17.6825Z" fill="#4A4B4D"/>
<path d="M51.8019 20.739C51.8019 26.2508 47.27 30.8508 41.8489 30.8508C39.9007 30.8337 38.0011 30.2262 36.3893 29.1047C34.7775 27.9832 33.5257 26.398 32.7917 24.5488C32.0576 22.6996 31.8742 20.6691 32.2645 18.7132C32.6547 16.7574 33.6012 14.9637 34.9848 13.558C36.3683 12.1525 38.1268 11.1979 40.039 10.8148C41.951 10.4316 43.9309 10.6368 45.7292 11.4047C47.5276 12.1726 49.064 13.4688 50.1446 15.1298C51.2252 16.7909 51.8019 18.7425 51.8019 20.739ZM46.3386 20.739C46.3601 20.1212 46.258 19.5056 46.0385 18.9298C45.8189 18.3541 45.4867 17.8305 45.0622 17.3914C44.6377 16.9522 44.1299 16.6068 43.5703 16.3764C43.0105 16.1461 42.4107 16.0356 41.8076 16.0519C39.3936 16.0519 37.4029 18.0048 37.4029 20.739C37.4029 23.5164 39.3936 25.426 41.8076 25.426C42.4105 25.4422 43.0104 25.3317 43.5702 25.1013C44.1298 24.8709 44.6376 24.5255 45.062 24.0863C45.4865 23.6472 45.8187 23.1236 46.0382 22.5479C46.2576 21.9723 46.3602 21.3566 46.3386 20.739Z" fill="#4A4B4D"/>
<path d="M54.2676 4.94158C54.2676 3.42279 55.7074 1.94702 57.3592 1.94702C59.1379 1.94702 60.5359 3.37911 60.5359 4.94158C60.5175 5.78716 60.1729 6.59085 59.5775 7.17667C58.9822 7.76249 58.1845 8.0827 57.3592 8.0672C56.5515 8.05015 55.781 7.71664 55.2059 7.13527C54.6309 6.5539 54.295 5.76886 54.2676 4.94158ZM60.0274 30.8503H54.7333V11.4513H60.0698V30.8503H60.0274Z" fill="#4A4B4D"/>
<path d="M82.1019 30.8512H76.8092V21.1718C76.8092 18.0461 75.0306 16.4847 72.8704 16.4847C70.4986 16.4847 68.3384 18.0472 68.3384 21.1718V30.8512H63.002V11.4521H68.3384V12.7965C69.3972 11.5812 71.5997 11.0172 73.3361 11.0172C78.5034 11.0172 82.1031 15.5305 82.1031 21.1291L82.1019 30.8512Z" fill="#4A4B4D"/>
<path d="M84.5723 30.8499V2.24878H94.2712C100.836 2.24878 105.834 7.28305 105.834 13.4889C105.834 20.8234 101.09 25.9007 93.6782 25.9007H90.3326V30.8482L84.5723 30.8499ZM93.5512 20.5213C97.6593 20.5213 99.9888 17.9605 99.9888 13.9676C99.9888 10.4957 97.9136 7.63124 93.8901 7.63124H90.3749V20.5205L93.5512 20.5213Z" fill="#4A4B4D"/>
<path d="M126.856 26.8146C125.246 29.2882 121.9 30.8507 118.554 30.8507C112.88 30.8507 108.305 26.2939 108.305 20.7388C108.298 19.4126 108.547 18.098 109.038 16.8707C109.528 15.6435 110.251 14.5279 111.165 13.588C112.078 12.6482 113.163 11.9027 114.359 11.3945C115.555 10.8863 116.836 10.6254 118.131 10.6269C120.2 10.618 122.222 11.2691 123.914 12.4899C125.607 13.7107 126.887 15.4408 127.577 17.4403L117.03 25.2087C117.536 25.3717 118.066 25.445 118.597 25.4259C120.206 25.4259 121.816 24.8616 122.664 23.4728L126.856 26.8146ZM113.811 22.0422L120.714 17.0064C119.958 16.4182 119.036 16.0982 118.088 16.095C115.674 16.095 113.683 18.0481 113.683 20.7821C113.681 21.2051 113.724 21.6272 113.811 22.0408V22.0422Z" fill="#4A4B4D"/>
<path d="M149.274 1.81421V30.4153H143.936V29.0266C143.132 30.1549 141.056 30.8493 139.32 30.8493C134.153 30.8493 130.045 26.2925 130.045 20.7374C130.045 15.1391 134.28 10.6254 139.32 10.6254C141.014 10.6254 143.09 11.4499 143.936 12.4047V1.81421H149.274ZM144.189 20.736C144.189 18.0019 142.368 16.0489 139.869 16.0489C137.455 16.0489 135.465 18.0019 135.465 20.736C135.465 23.5135 137.455 25.4231 139.869 25.4231C142.327 25.4234 144.192 23.4701 144.192 20.736H144.189Z" fill="#4A4B4D"/>
<path d="M151.74 4.94158C151.74 3.42279 153.18 1.94702 154.831 1.94702C156.611 1.94702 158.009 3.37911 158.009 4.94158C157.987 5.77828 157.646 6.57308 157.061 7.15688C156.476 7.74066 155.692 8.06731 154.875 8.06731C154.058 8.06731 153.273 7.74066 152.688 7.15688C152.102 6.57308 151.762 5.77828 151.74 4.94158ZM157.501 30.8503H152.164V11.4513H157.501V30.8503Z" fill="#4A4B4D"/>
<path d="M179.705 11.0186V30.4176H174.368V29.0279C173.565 30.1561 171.489 30.8505 169.752 30.8505C164.585 30.8505 160.477 26.2939 160.477 20.7386C160.477 15.1404 164.712 10.6267 169.752 10.6267C171.446 10.6267 173.522 11.4511 174.368 12.406V11.0616H179.705V11.0186ZM174.58 20.74C174.58 18.0058 172.76 16.0528 170.26 16.0528C167.846 16.0528 165.856 18.0058 165.856 20.74C165.856 23.5174 167.846 25.4271 170.26 25.4271C172.759 25.4271 174.58 23.4741 174.58 20.74Z" fill="#4A4B4D"/>
<path d="M187.509 25.3826H182.172V30.8507H187.509V25.3826Z" fill="#4A4B4D"/>
</g>
<defs>
<clipPath id="clip0_265_25811">
<rect width="187.573" height="30.8509" fill="white" transform="translate(0.779297 0.616943)"/>
</clipPath>
</defs>
</svg>
