<svg width="259" height="30" viewBox="0 0 259 30" fill="none" xmlns="http://www.w3.org/2000/svg">
<path d="M78.4119 3.98696C74.9319 5.58195 73.4094 7.17694 71.8869 10.8019C69.4944 16.6019 71.5244 24.3593 76.1644 27.2593C79.5719 29.2893 85.8068 29.2893 88.5618 27.1143C90.6643 25.4468 92.5493 21.7494 92.5493 19.2844C92.5493 16.8919 91.3168 17.6169 90.8093 20.3719C90.5193 21.7494 89.5043 23.8518 88.4893 25.0843C86.9668 26.8243 86.0243 27.2593 83.8493 27.2593C78.9194 27.2593 77.1069 24.0693 77.1794 15.4419C77.1794 12.3244 77.5419 8.84443 77.9769 7.75694C80.5144 1.66697 87.6193 3.84196 89.6493 11.3819C90.8818 15.9494 91.8243 14.6444 91.8243 8.40943C91.8243 2.60947 91.1718 1.30448 89.6493 4.05946C88.9243 5.43695 88.8518 5.43695 86.5318 4.05946C83.6318 2.24697 82.1093 2.24697 78.4119 3.98696Z" fill="#4A4B4D"/>
<path d="M3.375 9.20691C3.375 13.5569 3.5925 15.0069 4.31749 14.7894C4.75249 14.5719 5.25999 13.7019 5.40499 12.6869C5.98498 7.61192 7.86997 4.78444 10.625 4.78444C12.0749 4.78444 12.0749 5.14693 11.93 15.8044L11.7125 26.8968L9.53746 27.1143C8.37747 27.2593 7.07248 27.6943 6.70998 28.0568C6.27498 28.4193 9.39247 28.7093 14.8299 28.7093C19.8324 28.7093 23.6749 28.4193 23.6749 28.0568C23.6749 27.6218 22.4424 27.2593 20.9924 27.1143L18.2374 26.8968L18.0199 15.8044L17.8024 4.78444H19.6874C21.8624 4.78444 24.1824 8.11942 24.8349 12.1794C25.2699 14.6444 25.5599 14.9344 27.3724 14.9344H29.4748V21.0968C29.4748 26.7518 29.3298 27.2593 28.0249 27.2593C27.2274 27.2593 26.5749 27.5493 26.5749 27.9843C26.5749 28.4193 32.5923 28.7093 43.2498 28.7093H59.9247V25.0843C59.9247 23.0543 59.6347 21.4593 59.1997 21.4593C58.8372 21.4593 58.4747 22.0393 58.4747 22.7643C58.4747 25.2293 56.3722 27.2593 53.6897 27.2593C51.2972 27.2593 51.2247 27.1868 51.2247 24.2868C51.2247 21.8943 51.4422 21.3868 52.5297 21.6043C53.1822 21.7493 53.8347 22.5468 53.9797 23.4893C54.4872 26.8243 55.5747 24.9393 55.5747 20.7343C55.5747 16.5294 54.4872 14.6444 53.9797 17.9794C53.8347 18.9218 53.1822 19.7193 52.5297 19.8643C51.4422 20.0818 51.2247 19.5743 51.2247 17.4719C51.2247 14.8619 51.2247 14.8619 53.9797 15.0794C56.2997 15.2969 56.7347 15.5869 57.3872 17.6169C58.3297 21.0243 59.1997 20.5893 59.1997 16.7469V13.4844H42.8873H26.5749V8.40941V3.33444H14.9749H3.375V9.20691ZM38.6098 17.6169C38.7548 19.9368 38.6823 20.0093 35.9273 20.0093C33.1723 20.0093 33.0998 19.9368 33.0998 17.3994C33.0998 14.8619 33.1723 14.8619 35.7823 15.0794C38.1748 15.2969 38.4648 15.5144 38.6098 17.6169ZM47.5997 21.0968V27.2593H45.0623H42.5248V21.0968V14.9344H45.0623H47.5997V21.0968ZM38.3198 23.9968C38.6823 27.1143 38.5373 27.2593 35.4923 27.2593C33.1723 27.2593 33.0998 27.1868 33.0998 24.3593C33.0998 21.5318 33.1723 21.4593 35.5648 21.4593C37.8123 21.4593 38.0298 21.6768 38.3198 23.9968Z" fill="#4A4B4D"/>
<path d="M177.375 9.20709C177.375 13.5571 177.592 15.0071 178.317 14.7896C178.752 14.5721 179.26 13.7021 179.405 12.6871C179.985 7.6121 181.87 4.78462 184.625 4.78462C186.075 4.78462 186.075 5.14712 185.93 15.8046L185.712 26.897L183.537 27.1145C182.377 27.2595 181.072 27.6945 180.71 28.057C180.275 28.4195 183.392 28.7095 188.83 28.7095C193.832 28.7095 197.675 28.4195 197.675 28.057C197.675 27.622 196.442 27.2595 194.992 27.1145L192.237 26.897L192.02 15.8046L191.802 4.78462H193.687C195.862 4.78462 198.037 7.9746 198.762 12.1796C199.197 14.6446 199.487 14.9346 201.372 14.9346H203.475V21.097C203.475 26.752 203.33 27.2595 202.025 27.2595C201.227 27.2595 200.575 27.5495 200.575 27.9845C200.575 28.4195 203.692 28.7095 208.55 28.7095C213.407 28.7095 216.525 28.4195 216.525 27.9845C216.525 27.5495 216.09 27.2595 215.51 27.2595C214.132 27.2595 213.625 25.592 213.697 21.242V17.472L215.727 22.9095L217.685 28.347H230.662H243.567L243.785 25.302C244.075 21.7495 242.987 20.517 242.262 23.4895C241.537 26.3895 240.522 27.2595 237.84 27.2595C235.447 27.2595 235.375 27.187 235.375 24.3595C235.375 22.7645 235.665 21.4595 235.955 21.4595C236.97 21.4595 238.275 23.1995 238.275 24.577C238.275 25.302 238.637 25.6645 239 25.447C239.87 24.867 239.942 16.3845 239.072 16.3845C238.71 16.3845 238.202 17.182 237.985 18.197C237.26 21.0245 235.375 20.517 235.375 17.472C235.375 15.0796 235.52 14.9346 237.84 14.9346C240.087 14.9346 240.45 15.2246 241.247 17.472C242.552 20.952 243.35 20.662 243.35 16.747V13.4846H232.91H222.397L221.165 17.907C220.512 20.2995 219.715 21.967 219.425 21.677C219.135 21.387 218.337 19.357 217.54 17.2545L216.235 13.4846H208.405H200.575V8.4096V3.33463H188.975H177.375V9.20709ZM212.175 21.097V27.2595H209.637H207.1V21.097V14.9346H209.637H212.175V21.097ZM231.025 21.097V27.2595H228.85H226.675V21.097V14.9346H228.85H231.025V21.097ZM222.47 23.0545C222.252 26.317 221.89 27.187 220.802 27.477C220.077 27.6945 219.425 27.767 219.425 27.6945C219.425 27.622 219.932 25.882 220.585 23.9245C221.237 21.967 221.89 19.937 222.035 19.357C222.615 17.5445 222.76 18.8495 222.47 23.0545Z" fill="#4A4B4D"/>
<path d="M93.2746 14.2096C93.2746 14.5721 93.7821 14.9346 94.3621 14.9346C95.2321 14.9346 95.4496 16.0945 95.4496 21.097C95.4496 25.9545 95.2321 27.2595 94.4346 27.2595C93.8546 27.2595 93.1296 27.5495 92.9121 27.9845C92.6221 28.4195 94.3621 28.7095 97.5521 28.7095C100.38 28.7095 102.7 28.4195 102.7 28.057C102.7 27.6945 102.047 27.2595 101.25 27.1145C100.38 26.9695 99.7271 26.6795 99.7996 26.317C99.7996 26.027 99.7996 24.7945 99.7996 23.562C99.7996 21.677 100.017 21.387 101.467 21.6045C102.772 21.7495 103.135 22.402 103.425 25.0845C103.787 28.1295 103.932 28.347 105.962 28.347C107.847 28.347 108.137 28.057 108.355 26.2445C108.5 25.012 108.355 24.3595 107.92 24.6495C107.485 24.867 106.687 24.142 106.107 22.982C105.165 21.0245 105.165 20.7345 106.47 19.4295C108.282 17.6895 107.702 15.442 105.165 14.3546C102.917 13.2671 93.2746 13.1946 93.2746 14.2096ZM103.787 16.312C104.44 18.342 103.425 20.0095 101.54 20.0095C100.017 20.0095 99.7996 19.647 99.7996 17.472C99.7996 15.297 100.017 14.9346 101.54 14.9346C102.627 14.9346 103.497 15.442 103.787 16.312Z" fill="#4A4B4D"/>
<path d="M108.137 14.2096C108.355 14.5721 109.007 14.9346 109.515 14.9346C111.037 14.9346 115.025 22.0395 115.025 24.7945C115.025 26.752 114.735 27.2595 113.647 27.2595C112.85 27.2595 111.98 27.5495 111.762 27.9845C111.472 28.4195 113.357 28.7095 116.837 28.7095C120.317 28.7095 122.202 28.4195 121.912 27.9845C121.695 27.5495 120.825 27.2595 120.027 27.2595C117.78 27.2595 118.215 22.547 120.897 18.342C122.71 15.3696 123.362 14.8621 125.03 15.0796C126.987 15.2971 126.987 15.3696 127.205 21.242C127.422 26.897 127.35 27.2595 125.9 27.2595C125.102 27.2595 124.45 27.5495 124.45 27.9845C124.45 28.4195 126.48 28.7095 129.162 28.7095C131.845 28.7095 133.875 28.4195 133.875 27.9845C133.875 27.5495 133.222 27.2595 132.425 27.2595C131.265 27.2595 130.975 26.752 130.975 24.722C130.975 22.3295 131.12 22.1845 133.367 22.1845C134.672 22.1845 136.412 21.677 137.21 21.097C138.08 20.517 138.95 20.227 139.095 20.4445C139.312 20.662 139.747 19.8645 140.037 18.777C140.617 16.312 141.705 14.9346 143.01 14.9346C143.807 14.9346 144.024 16.312 144.024 21.097C144.024 26.6795 143.879 27.2595 142.647 27.2595C141.85 27.2595 140.98 27.622 140.762 27.9845C140.472 28.4195 142.357 28.7095 145.837 28.7095C149.317 28.7095 151.202 28.4195 150.912 27.9845C150.694 27.622 149.824 27.2595 149.027 27.2595C147.794 27.2595 147.649 26.6795 147.649 21.097C147.649 17.6895 147.939 14.9346 148.302 14.9346C149.317 14.9346 151.274 17.907 151.274 19.4295C151.274 20.1545 151.564 20.7345 151.854 20.7345C152.217 20.7345 152.869 22.0395 153.377 23.6345C154.464 27.187 156.494 28.7095 160.409 28.7095C162.947 28.7095 163.817 28.347 165.339 26.462C168.094 23.1995 168.022 18.487 165.122 15.587C161.642 12.1071 156.857 12.8321 154.174 17.327L152.724 19.647V16.5295V13.4846H145.837C140.182 13.4846 138.95 13.7021 138.95 14.5721C138.95 15.9495 138.297 15.9495 136.485 14.5721C135.397 13.7746 132.932 13.4846 126.842 13.4846C119.375 13.4846 116.837 14.0646 119.737 15.2246C120.752 15.587 120.752 15.877 119.737 17.8345C118.07 21.0245 117.78 20.8795 115.17 15.4421C115.025 15.1521 115.387 14.9346 116.04 14.9346C116.692 14.9346 117.2 14.5721 117.2 14.2096C117.2 13.7746 115.097 13.4846 112.415 13.4846C109.442 13.4846 107.847 13.7746 108.137 14.2096ZM162.657 16.3845C164.469 19.937 163.454 26.8245 161.062 27.6945C158.814 28.5645 157.074 25.882 157.074 21.532C157.074 15.0071 160.409 11.9621 162.657 16.3845ZM135.035 16.892C135.615 19.212 134.6 21.0245 132.497 21.3145C131.12 21.532 130.975 21.242 130.975 18.2695C130.975 15.2246 131.12 14.9346 132.787 14.9346C134.092 14.9346 134.672 15.4421 135.035 16.892Z" fill="#4A4B4D"/>
<path d="M245.161 14.935C244.291 15.95 244.001 16.8925 244.364 18.3425C244.654 19.43 244.799 22.33 244.799 24.65C244.726 28.4925 244.799 28.8549 245.886 27.985C246.756 27.26 247.264 27.26 247.844 27.84C249.149 29.1449 253.136 28.8549 254.441 27.405C255.746 26.0275 256.109 21.8225 255.021 21.17C254.731 20.9525 254.586 19.14 254.804 17.11C255.094 13.5575 254.586 12.6875 252.991 14.2825C252.411 14.8625 252.049 14.8625 251.759 14.2825C250.889 12.905 246.611 13.34 245.161 14.935ZM250.236 14.645C250.816 14.935 251.904 16.095 252.484 17.3275L253.644 19.5025L250.889 19.0675C247.336 18.4875 245.669 16.8925 246.974 15.37C247.989 14.065 248.496 13.9925 250.236 14.645ZM253.281 24.795C253.716 26.0275 252.266 27.985 250.816 27.985C249.294 27.985 246.249 24.65 246.249 22.9825C246.249 21.605 246.394 21.605 249.584 22.6925C251.396 23.2725 253.064 24.2875 253.281 24.795Z" fill="#4A4B4D"/>
</svg>
