<svg width="44" height="44" viewBox="0 0 44 44" fill="none" xmlns="http://www.w3.org/2000/svg">
<g clip-path="url(#clip0_2024_6885)">
<path d="M21 42C32.598 42 42 32.598 42 21C42 9.402 32.598 0 21 0C9.402 0 0 9.402 0 21C0 32.598 9.402 42 21 42Z" fill="#F3BA2F"/>
<path d="M41 21C41 32.0457 32.0457 41 21 41C9.95429 41 1 32.0457 1 21C1 9.95429 9.95429 1 21 1C32.0457 1 41 9.95429 41 21Z" stroke="white" stroke-opacity="0.3" stroke-width="2"/>
<path d="M15.9023 18.9053L21 13.8075L26.1004 18.9079L29.0666 15.9416L21 7.875L12.936 15.939L15.9023 18.9053ZM7.875 21L10.8413 18.0337L13.8075 21L10.8413 23.9663L7.875 21ZM15.9023 23.0948L21 28.1925L26.1004 23.0921L29.0666 26.0571L21 34.125L12.936 26.061L12.9321 26.0571L15.9023 23.0948ZM28.1925 21L31.1587 18.0337L34.125 21L31.1587 23.9663L28.1925 21ZM24.0082 20.9974H24.0109V21L21 24.0109L17.9931 21.0052L17.9878 21L17.9931 20.9961L18.5194 20.4684L18.7753 20.2125L21 17.9891L24.0096 20.9987L24.0082 20.9974Z" fill="white"/>
<path d="M43.1 36C43.1 39.9212 39.9212 43.1 36 43.1C32.0788 43.1 28.9 39.9212 28.9 36C28.9 32.0788 32.0788 28.9 36 28.9C39.9212 28.9 43.1 32.0788 43.1 36Z" fill="#F3BA2F" stroke="#F7CF6D" stroke-width="1.8"/>
<path d="M34.058 35.202L36 33.26L37.943 35.203L39.073 34.073L36 31L32.928 34.072L34.058 35.202ZM31 36L32.13 34.87L33.26 36L32.13 37.13L31 36ZM34.058 36.798L36 38.74L37.943 36.797L39.073 37.9265L36 41L32.928 37.928L32.9265 37.9265L34.058 36.798ZM38.74 36L39.87 34.87L41 36L39.87 37.13L38.74 36ZM37.147 36L36 37.147L34.8545 36.002L34.8525 36L34.8545 35.9985L35.055 35.7975L35.1525 35.7L36 34.853L37.147 36Z" fill="white"/>
</g>
<defs>
<clipPath id="clip0_2024_6885">
<rect width="44" height="44" fill="white"/>
</clipPath>
</defs>
</svg>
