<?xml version="1.0" encoding="UTF-8"?><svg id="Layer_1" xmlns="http://www.w3.org/2000/svg" width="200" height="46.8214" viewBox="0 0 200 46.8214"><rect width="46.8214" height="46.8214" rx="11.7054" ry="11.7054" fill="#baff2a"/><path d="M110.5859,19.3607h3.3852v15.1701h-3.3852v-15.1701ZM106.2692,22.802c-.6274-1.2076-1.5077-2.1536-2.6407-2.8372s-2.4628-1.0253-3.9892-1.0253c-1.489,0-2.7999.3372-3.933,1.0114s-2.018,1.6106-2.6548,2.8091c-.6368,1.1989-.9552,2.594-.9552,4.1857,0,1.5641.3091,2.9498.9271,4.1581.6274,1.1985,1.5076,2.1396,2.6407,2.8232,1.1331.6835,2.4581,1.0253,3.9751,1.0253s2.842-.3369,3.9752-1.0114c1.1331-.6836,2.0133-1.6246,2.6407-2.8235.6368-1.2076.9552-2.5983.9552-4.1718,0-1.5637-.3137-2.9449-.9411-4.1437ZM102.6451,30.4294c-.6555.899-1.6575,1.3486-3.0059,1.3486-1.3016,0-2.2896-.4355-2.9637-1.3063-.6649-.8805-.9974-2.0556-.9974-3.5259,0-.955.1406-1.7932.4214-2.5142.2809-.7305.7117-1.2969,1.2923-1.6995.5899-.412,1.3391-.6181,2.2474-.6181,1.3297,0,2.327.4401,2.9919,1.3203.6649.8711.9973,2.0416.9973,3.5116,0,1.4235-.3278,2.5846-.9833,3.4836ZM196.5867,14.3042v5.8156c-.0533-.0403-.0997-.088-.1545-.1269-.9739-.7025-2.1818-1.0533-3.624-1.0533-1.4327,0-2.6782.3509-3.7363,1.0533-1.0582.693-1.8776,1.6435-2.4582,2.8514-.5712,1.1985-.8568,2.5657-.8568,4.1014,0,1.5172.2856,2.8795.8568,4.0878.5713,1.2079,1.3766,2.163,2.416,2.8652,1.0394.7025,2.2568,1.0536,3.652,1.0536,1.4796,0,2.7204-.3512,3.7223-1.0536.2147-.1503.4122-.3181.604-.4918v1.124h2.9919V14.3042h-3.4133ZM196.6148,29.5446c-.2528.749-.6601,1.3343-1.222,1.7558-.5524.4118-1.2828.6179-2.1912.6179-.8802,0-1.606-.22-2.1772-.6602-.5712-.4401-.9973-1.0348-1.2782-1.7838-.2715-.7584-.4073-1.6015-.4073-2.5286,0-.9176.1404-1.7509.4214-2.5002.2809-.7584.7164-1.3577,1.3063-1.7978.59-.4495,1.3391-.6744,2.2474-.6744.8616,0,1.5638.2109,2.1071.6321.5431.4121.941.9928,1.1938,1.7418.2622.7399.3933,1.606.3933,2.5985,0,.9834-.1311,1.8495-.3933,2.5989ZM77.3536,17.9844c.9083-.6087,2.0414-.9133,3.3992-.9133,1.5077,0,2.7344.3747,3.6802,1.124.9458.7396,1.6153,1.7698,2.0086,3.0901l3.4132-.9411c-.6274-1.9758-1.7183-3.5445-3.2728-4.7056-1.5545-1.1705-3.4976-1.7558-5.8293-1.7558-2.0226,0-3.7551.445-5.1972,1.3343-1.4421.8805-2.5518,2.1119-3.329,3.6945-.7679,1.5823-1.1518,3.4179-1.1518,5.506s.3839,3.9237,1.1518,5.506c.7772,1.5826,1.8869,2.8189,3.329,3.7085,1.4421.8802,3.1745,1.3203,5.1972,1.3203,2.3317,0,4.2748-.5804,5.8293-1.7418,1.5545-1.1705,2.6453-2.7437,3.2728-4.7196l-3.4132-.9411c-.3933,1.3111-1.0629,2.3411-2.0086,3.0901-.9458.7493-2.1725,1.124-3.6802,1.124-1.3578,0-2.4909-.3046-3.3992-.9131-.9083-.6087-1.5919-1.4609-2.0508-2.5565-.4495-1.1051-.6742-2.3974-.6742-3.8768.0094-1.4795.2388-2.7672.6883-3.8628.4589-1.1048,1.1377-1.9618,2.0367-2.5703ZM182.6901,22.774c-.206-.6556-.5244-1.2734-.9551-1.8541s-1.0114-1.0579-1.7417-1.4326c-.7304-.3747-1.6575-.5621-2.7812-.5621-1.4234,0-2.622.3138-3.5958.9413-.5238.3324-.9742.7322-1.3625,1.1891v-1.6949h-3.02v15.1701h3.4273v-7.7957c0-.9271.103-1.6855.3091-2.2756.206-.5993.4775-1.0674.8147-1.4046.3464-.3464.7304-.5898,1.1518-.7302.4214-.1406.8475-.2109,1.2782-.2109.8053,0,1.4421.1732,1.9103.5198.4775.3464.8334.7913,1.0675,1.3343.2435.5338.3979,1.0911.4635,1.6715.0655.5807.0983,1.1097.0983,1.5875v7.3038h3.4274v-8.4698c0-.3652-.0328-.8382-.0984-1.4186-.0562-.5901-.1873-1.2128-.3933-1.8684ZM149.1087,22.8443c-.5806-1.2079-1.4-2.1584-2.4582-2.8514-1.0488-.7025-2.2896-1.0533-3.7223-1.0533-1.4421,0-2.6548.3509-3.638,1.0533-.0497.0355-.0919.0795-.1404.1163v-5.805h-3.4133v20.2266h2.9918v-1.124c.1919.1738.3895.3415.6041.4918,1.002.7025,2.2427,1.0536,3.7223,1.0536,1.3953,0,2.6126-.3512,3.6521-1.0536,1.0394-.7021,1.8447-1.6572,2.4159-2.8652.5713-1.2083.8569-2.5706.8569-4.0878,0-1.5357-.2903-2.9029-.8708-4.1014ZM145.9763,29.4743c-.2715.749-.6929,1.3438-1.2642,1.7838-.5712.4401-1.2969.6602-2.1771.6602-.9084,0-1.6434-.2061-2.2053-.6179-.5525-.4215-.9599-1.0068-1.222-1.7558-.2529-.7493-.3793-1.6155-.3793-2.5989,0-.9925.1265-1.8586.3793-2.5985.2621-.749.6649-1.3297,1.2079-1.7418.5431-.4212,1.2455-.6321,2.1069-.6321.9083,0,1.6575.2249,2.2475.6744.5899.4401,1.0253,1.0394,1.3063,1.7978.2809.7493.4214,1.5826.4214,2.5002,0,.9271-.1404,1.7701-.4214,2.5286ZM110.5859,17.0571h3.3852v-3.1041h-3.3852v3.1041ZM165.5207,23.4061c-.0562-.5618-.22-1.1096-.4916-1.6434-.4963-1.002-1.2595-1.723-2.2896-2.1631-1.0207-.4401-2.2053-.6601-3.5537-.6601-1.7886,0-3.212.3886-4.2701,1.1656-1.0488.7773-1.7605,1.8076-2.1351,3.0904l3.0902.9691c.2529-.7773.6976-1.3249,1.3344-1.6432.6368-.3184,1.2969-.4778,1.9806-.4778,1.1331,0,1.9384.2484,2.416.7448.3956.4109.6143,1.0228.6758,1.8129-.5997.0897-1.2153.1826-1.7855.2658-.9551.1312-1.8447.2761-2.6688.4355-.8148.1592-1.5264.3369-2.1351.5338-.8053.2715-1.4608.6224-1.9665,1.0534-.5057.4212-.8802.9271-1.1237,1.5169-.2434.5807-.3652,1.2363-.3652,1.9667,0,.8333.192,1.5964.5759,2.2894.3933.693.9691,1.2502,1.7277,1.6715.7585.412,1.6855.6181,2.7812.6181,1.3671,0,2.5049-.2529,3.4132-.7584.7068-.3967,1.3425-.9697,1.9103-1.7104v2.0473h2.9637v-9.3126c0-.6556-.0281-1.2594-.0842-1.8121ZM162.2058,28.2663c-.0187.5524-.1171,1.0439-.2949,1.4749-.1124.3464-.3325.7162-.6602,1.1097-.3184.3932-.7492.7256-1.2923.9971-.5431.2718-1.1986.4075-1.9665.4075-.5338,0-.9833-.0844-1.3484-.2529-.3558-.1686-.6274-.3932-.8147-.6741-.1873-.2903-.2809-.6227-.2809-.9974,0-.3278.0703-.6133.2107-.8568.1498-.2435.3605-.4589.6321-.6461.2715-.1872.6039-.3513.9973-.4918.4026-.1309.8662-.248,1.3906-.351.5244-.1126,1.1518-.2295,1.8821-.3512.4614-.0769,1.0018-.1641,1.579-.2558-.0067.2609-.0168.5482-.0338.8879ZM131.6068,22.774c-.206-.6556-.5244-1.2734-.9551-1.8541-.4307-.5807-1.0114-1.0579-1.7418-1.4326-.7304-.3747-1.6574-.5621-2.7812-.5621-1.4234,0-2.622.3138-3.5959.9413-.5238.3324-.9741.7322-1.3625,1.1891v-1.6949h-3.0199v15.1701h3.4273v-7.7957c0-.9271.103-1.6855.309-2.2756.206-.5993.4776-1.0674.8147-1.4046.3464-.3464.7304-.5898,1.1518-.7302.4214-.1406.8475-.2109,1.2782-.2109.8053,0,1.4421.1732,1.9103.5198.4775.3464.8334.7913,1.0675,1.3343.2435.5338.3979,1.0911.4635,1.6715.0655.5807.0983,1.1097.0983,1.5875v7.3038h3.4273v-8.4698c0-.3652-.0327-.8382-.0983-1.4186-.0562-.5901-.1873-1.2128-.3933-1.8684Z"/><path d="M35.3058,30.9986c-1.5472,2.3159-3.7271,4.1049-6.3025,5.1725-1.7158.711-3.535,1.0711-5.3663,1.0711-.9173,0-1.8375-.0903-2.7503-.2721-2.7343-.5441-5.2205-1.8735-7.1918-3.8442-1.9701-1.9696-3.3001-4.4558-3.8442-7.1901-.5435-2.7377-.2669-5.544.7996-8.1172,1.0665-2.5743,2.8549-4.7542,5.1725-6.3042,2.3194-1.5489,5.0176-2.3674,7.8045-2.3674v8.1937c-1.1608,0-2.2856.3406-3.2516.9865-.9653.6459-1.7112,1.5546-2.1559,2.628-.4441,1.0722-.5595,2.2416-.3326,3.3824.2263,1.1374.7802,2.173,1.6009,2.9938.8219.8219,1.8581,1.3763,2.9978,1.6026,1.1391.2263,2.3085.1109,3.3807-.3326,1.0734-.4447,1.9816-1.19,2.6263-2.1559.6459-.9659.9871-2.0907.9871-3.2521h8.1937c0,2.788-.819,5.4869-2.3679,7.8051Z"/></svg>