<svg width="196" height="51" viewBox="0 0 196 51" fill="none" xmlns="http://www.w3.org/2000/svg">
<path d="M71.817 39.8606C70.083 39.8606 68.5079 39.5797 67.1036 39.0302C65.7238 38.4563 64.5272 37.6015 63.5137 36.4659C62.5368 35.3303 61.7797 33.9383 61.2547 32.2776C60.7296 30.5925 60.4609 28.6388 60.4609 26.4286C60.4609 24.2184 60.7296 22.2524 61.2547 20.5429C61.7797 18.809 62.5368 17.3559 63.5137 16.1958C64.515 15.0114 65.7116 14.12 67.1036 13.5217C68.5079 12.9233 70.083 12.618 71.817 12.618C74.1859 12.618 76.1397 13.1187 77.7027 14.1322C79.2657 15.1335 80.5112 16.6598 81.4392 18.6991L77.1776 20.958C76.7991 19.7736 76.1885 18.8333 75.3337 18.1251C74.479 17.3925 73.3067 17.0262 71.817 17.0262C69.9487 17.0262 68.4713 17.6611 67.3601 18.9188C66.2734 20.1766 65.736 21.935 65.736 24.2062V28.3579C65.736 30.6535 66.2734 32.4119 67.3601 33.6452C68.4713 34.8541 69.9487 35.4524 71.817 35.4524C73.3067 35.4524 74.5157 35.0494 75.4437 34.2435C76.3962 33.4376 77.0922 32.4485 77.5195 31.2641L81.5614 33.6452C80.609 35.6112 79.339 37.1375 77.7516 38.2487C76.1642 39.3355 74.1859 39.8727 71.8292 39.8727L71.817 39.8606Z" fill="#232323"/>
<path d="M92.5869 39.8604C91.1826 39.8604 89.9127 39.6162 88.7771 39.1399C87.6659 38.6637 86.7134 37.9677 85.9075 37.0641C85.126 36.1605 84.5277 35.0737 84.1003 33.816C83.673 32.5339 83.4531 31.093 83.4531 29.5178C83.4531 27.9425 83.673 26.5139 84.1003 25.2562C84.5277 23.9984 85.1382 22.9239 85.9075 22.0447C86.7134 21.1411 87.6659 20.445 88.7771 19.9688C89.9127 19.4926 91.1826 19.2484 92.5869 19.2484C93.9911 19.2484 95.261 19.4926 96.3967 19.9688C97.5323 20.445 98.4848 21.1411 99.2663 22.0447C100.072 22.9239 100.683 23.9984 101.11 25.2562C101.538 26.5139 101.757 27.9303 101.757 29.5178C101.757 31.1052 101.538 32.5339 101.11 33.816C100.683 35.0737 100.06 36.1605 99.2663 37.0641C98.4848 37.9677 97.5323 38.6637 96.3967 39.1399C95.261 39.6162 93.9911 39.8604 92.5869 39.8604ZM92.5869 35.9773C93.869 35.9773 94.8826 35.5866 95.6031 34.8051C96.3357 34.0236 96.7019 32.8758 96.7019 31.3738V27.7106C96.7019 26.2208 96.3357 25.0974 95.6031 24.3159C94.8704 23.5344 93.869 23.1437 92.5869 23.1437C91.3047 23.1437 90.3401 23.5344 89.6075 24.3159C88.8748 25.0974 88.5085 26.233 88.5085 27.7106V31.3738C88.5085 32.888 88.8748 34.0236 89.6075 34.8051C90.3401 35.5866 91.3291 35.9773 92.5869 35.9773Z" fill="#232323"/>
<path d="M107.679 16.8306C106.677 16.8306 105.945 16.5986 105.493 16.1468C105.066 15.695 104.846 15.1211 104.846 14.4129V13.6558C104.846 12.9476 105.066 12.3737 105.493 11.9219C105.945 11.4701 106.677 11.2381 107.679 11.2381C108.655 11.2381 109.376 11.4701 109.828 11.9219C110.28 12.3737 110.512 12.9476 110.512 13.6558V14.4129C110.512 15.1211 110.28 15.695 109.828 16.1468C109.376 16.5986 108.655 16.8306 107.679 16.8306ZM105.261 19.7002H110.096V39.4086H105.261V19.7002Z" fill="#232323"/>
<path d="M114.936 39.4086V19.7002H119.772V22.9849H119.955C120.358 21.9226 120.98 21.0434 121.847 20.3473C122.727 19.6147 123.935 19.2484 125.474 19.2484C127.513 19.2484 129.076 19.92 130.151 21.2509C131.238 22.5819 131.775 24.4869 131.775 26.9535V39.4086H126.939V27.4419C126.939 26.0376 126.683 24.9753 126.182 24.2671C125.682 23.5588 124.851 23.2047 123.691 23.2047C123.191 23.2047 122.702 23.278 122.214 23.4367C121.762 23.5589 121.347 23.7664 120.968 24.0351C120.614 24.2915 120.321 24.609 120.101 25.0119C119.869 25.3905 119.759 25.8422 119.759 26.3673V39.3964H114.924L114.936 39.4086Z" fill="#232323"/>
<path d="M142.821 39.8608C140.928 39.8608 139.353 39.5433 138.059 38.9205C136.776 38.2611 135.641 37.3697 134.664 36.2463L137.607 33.3767C138.339 34.2071 139.133 34.8665 139.988 35.3427C140.867 35.8189 141.881 36.0631 143.004 36.0631C144.127 36.0631 144.994 35.8678 145.495 35.4648C146.02 35.0618 146.289 34.5124 146.289 33.8041C146.289 33.2302 146.106 32.7784 145.727 32.4487C145.373 32.0946 144.762 31.8626 143.883 31.7283L141.917 31.4597C139.78 31.1788 138.144 30.5804 137.008 29.6524C135.897 28.7 135.348 27.308 135.348 25.5007C135.348 24.5483 135.519 23.6935 135.873 22.9364C136.227 22.1549 136.728 21.5077 137.387 20.9705C138.046 20.421 138.816 20.0058 139.731 19.7249C140.659 19.4197 141.697 19.2731 142.821 19.2731C143.773 19.2731 144.616 19.3464 145.349 19.5051C146.106 19.6273 146.777 19.8348 147.388 20.1035C147.986 20.3599 148.548 20.6774 149.048 21.0804C149.549 21.4589 150.038 21.8863 150.526 22.3625L147.693 25.1955C147.119 24.5971 146.423 24.0843 145.617 23.6813C144.811 23.2784 143.932 23.0829 142.98 23.0829C141.917 23.0829 141.16 23.2661 140.672 23.6447C140.22 24.0232 139.988 24.5117 139.988 25.1222C139.988 25.7816 140.171 26.2822 140.55 26.6363C140.953 26.966 141.624 27.198 142.552 27.3567L144.555 27.6254C148.804 28.2238 150.929 30.1653 150.929 33.4378C150.929 34.3903 150.734 35.2694 150.331 36.0753C149.952 36.8568 149.415 37.5406 148.707 38.1145C147.998 38.664 147.143 39.1037 146.142 39.4333C145.165 39.7386 144.054 39.8851 142.821 39.8851V39.8608Z" fill="#232323"/>
<path d="M166.232 36.1239H166.049C165.878 36.6246 165.633 37.1009 165.328 37.5527C165.047 37.98 164.681 38.3707 164.229 38.7249C163.802 39.079 163.277 39.3599 162.642 39.5553C162.043 39.7506 161.335 39.8605 160.529 39.8605C158.49 39.8605 156.927 39.1889 155.853 37.8579C154.766 36.5269 154.229 34.622 154.229 32.1554V19.7003H159.064V31.667C159.064 33.0224 159.333 34.0725 159.858 34.8052C160.383 35.5134 161.225 35.8675 162.385 35.8675C162.862 35.8675 163.326 35.8065 163.777 35.6843C164.254 35.5622 164.669 35.3669 165.023 35.1227C165.377 34.8418 165.67 34.5243 165.89 34.1458C166.122 33.7428 166.232 33.2788 166.232 32.7538V19.7247H171.067V39.4331H166.232V36.1484V36.1239Z" fill="#232323"/>
<path d="M180.72 39.4086C179.06 39.4086 177.838 38.9935 177.057 38.1631C176.275 37.3328 175.885 36.1605 175.885 34.6464V11.4701H180.72V35.55H183.321V39.3964H180.72V39.4086Z" fill="#232323"/>
<path d="M192.203 39.4086C190.543 39.4086 189.273 38.9812 188.393 38.1264C187.539 37.2473 187.111 36.0018 187.111 34.3899V23.5588H184.205V19.7125H185.719C186.452 19.7125 186.94 19.5537 187.197 19.224C187.478 18.8699 187.612 18.357 187.612 17.6732V14.3152H191.959V19.7125H196.001V23.5588H191.959V35.5622H195.696V39.4086H192.228H192.203Z" fill="#232323"/>
<path d="M17.2142 -0.00769043H51.6002V34.3782C51.6002 43.5486 44.1638 50.9851 34.9934 50.9851H0.607422V16.5991C0.607422 7.42872 8.04383 -0.00769043 17.2142 -0.00769043Z" fill="url(#paint0_linear_383_4038)"/>
<path d="M40.9022 20.0671L37.4953 21.63L35.102 22.729L34.9922 22.7779L31.6952 24.2676C31.6952 24.2676 31.6952 24.2432 31.6952 24.231C31.4998 23.425 31.1214 22.668 30.5963 22.0208L30.291 21.3614L33.5757 19.8595L36.0056 18.7483L39.4492 17.1731C39.6446 17.4662 39.8154 17.7714 39.9864 18.0889L40.89 20.0549L40.9144 20.0915L40.9022 20.0671Z" fill="white"/>
<path d="M41.4525 29.0663C41.196 30.1409 40.8298 31.191 40.3536 32.1801L29.6934 30.3606L29.7911 29.7745C30.5726 29.1396 31.1588 28.3092 31.5007 27.369L41.4525 29.0663Z" fill="white"/>
<path d="M22.2295 30.7637L17.9192 33.8164L14.842 36.0022C14.1094 35.1962 13.4621 34.317 12.9004 33.3768L15.9653 31.2033L18.1145 29.6769L20.3369 28.1017L22.2173 30.7637H22.2295Z" fill="white"/>
<path d="M22.6417 17.3682L21.3106 20.3355L19.3569 19.4563L16.8902 18.3451L13.4102 16.7821C14.0451 15.8419 14.7778 14.9749 15.6082 14.1934L19.4058 15.8908L22.312 17.1973L22.6539 17.3439L22.6417 17.3682Z" fill="white"/>
<path d="M37.7619 28.4436C36.1379 34.7689 29.6905 38.5665 23.3652 36.9424C21.3016 36.4174 19.4211 35.3306 17.9192 33.8287C17.1499 33.0472 16.4904 32.1802 15.9653 31.2155L12.9004 33.389C17.2475 40.801 26.772 43.2799 34.1841 38.9328C37.8473 36.7837 40.4726 33.2181 41.4495 29.0786L37.7619 28.4436Z" fill="white"/>
<path d="M19.394 15.9151C24.6936 12.0931 32.0812 13.2898 35.9032 18.5893C36.5748 19.5173 37.0998 20.543 37.4783 21.6298L40.8852 20.0669C40.8852 20.0669 40.8852 20.0303 40.873 20.018L39.9694 18.052C39.7984 17.7468 39.6275 17.4415 39.4322 17.1362C34.8164 9.88294 25.1941 7.75828 17.9409 12.374C16.1459 13.5218 14.5951 15.0238 13.3984 16.7943L16.8785 18.3573C17.5867 17.4171 18.4294 16.5989 19.3818 15.9151H19.394Z" fill="white"/>
<path d="M14.7096 23.2296C14.8439 22.558 15.027 21.8986 15.2712 21.2637L11.8521 19.7373C10.5089 23.1197 10.3868 26.8685 11.5224 30.3364L14.7583 28.0407C14.4042 26.4533 14.3921 24.817 14.6974 23.2296H14.7096Z" fill="white"/>
<path d="M37.3225 21.1657L34.9659 22.3502L34.8682 22.399L31.6445 24.0231" fill="white"/>
<path d="M20.1894 28.1871L18.1013 29.6646C17.5762 28.6267 17.2466 27.5155 17.1367 26.3555L18.2967 25.5374L20.1772 28.1871H20.1894Z" fill="white"/>
<path d="M21.7547 20.6043L20.4237 23.5715L17.6641 22.326C18.0426 21.2881 18.6043 20.3356 19.3125 19.493L21.7547 20.5921V20.6043Z" fill="white"/>
<path d="M35.1762 28.0039C33.7963 32.9005 28.7043 35.7334 23.82 34.3536C21.3534 33.6576 19.3019 31.9725 18.1296 29.689C18.1296 29.689 18.1296 29.6768 18.1296 29.6646C16.4445 26.3432 16.9208 22.338 19.3385 19.5051L19.3752 19.4563C22.7088 15.6099 28.5212 15.2069 32.3676 18.5405C33.6497 19.6517 34.6022 21.1047 35.1151 22.7166L35.0052 22.7655L31.7082 24.2552C31.7082 24.2552 31.7082 24.2307 31.7082 24.2185C30.9999 21.2513 28.0205 19.4196 25.0533 20.1157C22.086 20.8117 20.2544 23.8034 20.9504 26.7706C21.6587 29.7379 24.6381 31.5695 27.6053 30.8735C29.4125 30.4461 30.89 29.1273 31.525 27.3812L35.1882 28.0039H35.1762Z" fill="white"/>
<defs>
<linearGradient id="paint0_linear_383_4038" x1="5.2842" y1="5.04763" x2="46.9356" y2="45.9297" gradientUnits="userSpaceOnUse">
<stop stop-color="#3B916F"/>
<stop offset="1" stop-color="#096AA5"/>
</linearGradient>
</defs>
</svg>
