<svg width="39" height="39" viewBox="0 0 39 39" fill="none" xmlns="http://www.w3.org/2000/svg">
<mask id="mask0_2024_6822" style="mask-type:luminance" maskUnits="userSpaceOnUse" x="1" y="1" width="36" height="36">
<path d="M37 1H1V37H37V1Z" fill="white"/>
</mask>
<g mask="url(#mask0_2024_6822)">
<path d="M18.9687 37C28.9099 37 36.9687 28.9411 36.9687 19C36.9687 9.05887 28.9099 1 18.9687 1C9.02763 1 0.96875 9.05887 0.96875 19C0.96875 28.9411 9.02763 37 18.9687 37Z" fill="#5A7FF2"/>
<path d="M36.0686 18.9999C36.0686 28.444 28.4127 36.0999 18.9686 36.0999C9.52458 36.0999 1.86865 28.444 1.86865 18.9999C1.86865 9.55583 9.52458 1.8999 18.9686 1.8999C28.4127 1.8999 36.0686 9.55583 36.0686 18.9999Z" stroke="white" stroke-opacity="0.3" stroke-width="1.8"/>
<path d="M18.9766 8.1875V16.1721L25.7252 19.1877L18.9766 8.1875Z" fill="white" fill-opacity="0.602"/>
<path d="M18.9761 8.1875L12.2266 19.1877L18.9761 16.1721V8.1875Z" fill="white"/>
<path d="M18.9766 24.3707V29.7961L25.7297 20.4531L18.9766 24.3707Z" fill="white" fill-opacity="0.602"/>
<path d="M18.9761 29.7961V24.3698L12.2266 20.4531L18.9761 29.7961Z" fill="white"/>
<path d="M18.9766 23.1042L25.7252 19.1857L18.9766 16.1719V23.1042Z" fill="white" fill-opacity="0.2"/>
<path d="M12.2266 19.1857L18.9761 23.1042V16.1719L12.2266 19.1857Z" fill="white" fill-opacity="0.602"/>
</g>
<mask id="mask1_2024_6822" style="mask-type:luminance" maskUnits="userSpaceOnUse" x="21" y="22" width="16" height="16">
<path d="M36.9414 30.0454C36.9414 25.9033 33.5835 22.5454 29.4414 22.5454C25.2993 22.5454 21.9414 25.9033 21.9414 30.0454C21.9414 34.1875 25.2993 37.5454 29.4414 37.5454C33.5835 37.5454 36.9414 34.1875 36.9414 30.0454Z" fill="white"/>
</mask>
<g mask="url(#mask1_2024_6822)">
<path d="M29.4326 37.5366C33.5747 37.5366 36.9326 34.1788 36.9326 30.0366C36.9326 25.8945 33.5747 22.5366 29.4326 22.5366C25.2905 22.5366 21.9326 25.8945 21.9326 30.0366C21.9326 34.1788 25.2905 37.5366 29.4326 37.5366Z" fill="#5A7FF2"/>
<path d="M29.4609 25.7324V28.9092L32.146 30.1091L29.4609 25.7324Z" fill="white" fill-opacity="0.602"/>
<path d="M29.452 25.7324L26.7666 30.1091L29.452 28.9092V25.7324Z" fill="white"/>
<path d="M29.4609 32.1782V34.3368L32.1477 30.6196L29.4609 32.1782Z" fill="white" fill-opacity="0.602"/>
<path d="M29.452 34.3368V32.1779L26.7666 30.6196L29.452 34.3368Z" fill="white"/>
<path d="M29.4609 31.6594L32.146 30.1004L29.4609 28.9014V31.6594Z" fill="white" fill-opacity="0.2"/>
<path d="M26.7666 30.1004L29.452 31.6594V28.9014L26.7666 30.1004Z" fill="white" fill-opacity="0.602"/>
</g>
<path d="M36.8773 29.9828C36.8773 25.8256 33.5072 22.4556 29.35 22.4556C25.1928 22.4556 21.8228 25.8256 21.8228 29.9828C21.8228 34.14 25.1928 37.5101 29.35 37.5101C33.5072 37.5101 36.8773 34.14 36.8773 29.9828Z" stroke="#8BA5F6" stroke-width="1.8"/>
</svg>
