<svg width="38" height="38" viewBox="0 0 38 38" fill="none" xmlns="http://www.w3.org/2000/svg">
<g clip-path="url(#clip0_113_36)">
<path d="M29.5075 1.01855H8.52931C4.39148 1.01855 1.03711 4.37293 1.03711 8.51075V29.4889C1.03711 33.6267 4.39148 36.9811 8.52931 36.9811H29.5075C33.6453 36.9811 36.9996 33.6267 36.9996 29.4889V8.51075C36.9996 4.37293 33.6453 1.01855 29.5075 1.01855Z" fill="#FFA6CC" stroke="#232323" stroke-width="1.49844" stroke-miterlimit="10"/>
<path d="M20.0522 11.0504C20.0522 10.4735 19.5877 10.0166 19.0183 10.0166C18.4489 10.0166 17.9844 10.481 17.9844 11.0504V17.9657H11.0691C10.4922 17.9657 10.0352 18.4301 10.0352 18.9996C10.0352 19.569 10.4997 20.0334 11.0691 20.0334H17.9844V26.9487C17.9844 27.5256 18.4489 27.9829 19.0183 27.9829C19.5877 27.9829 20.0522 27.5181 20.0522 26.9487V20.0334H26.9675C27.5444 20.0334 28.0014 19.569 28.0014 18.9996C28.0014 18.4301 27.5369 17.9657 26.9675 17.9657H20.0522V11.0504Z" fill="#232323"/>
</g>
<defs>
<clipPath id="clip0_113_36">
<rect width="38" height="38" fill="white"/>
</clipPath>
</defs>
</svg>
