<svg width="200" height="33" viewBox="0 0 200 33" fill="none" xmlns="http://www.w3.org/2000/svg">
<circle cx="16.1123" cy="16.1123" r="16.1123" fill="#1570EF"/>
<path d="M12.0801 17.1637V20.8569H8.66784L4.57316 15.1966V11.6238H8.10583L12.0801 17.1637Z" fill="white"/>
<path d="M18.6641 17.1637V20.8569H15.2518L11.1571 15.1966V11.6238H14.6898L18.6641 17.1637Z" fill="white"/>
<path d="M25.248 17.1637V20.8569H21.8358L17.7411 15.1966V11.6238H21.2738L25.248 17.1637Z" fill="white"/>
<path d="M25.7396 17.1153L21.8393 11.6137L24.4843 11.6454C26.1621 11.6771 27.6964 12.565 27.6964 14.193C27.6964 16.2274 25.9932 17.1153 25.7396 17.1153Z" fill="white"/>
<path d="M193.631 18.8204C193.284 18.6938 192.958 18.5438 192.651 18.3705C192.345 18.1972 192.075 17.9873 191.841 17.7407C191.615 17.4874 191.435 17.1875 191.302 16.8409C191.168 16.4943 191.102 16.0844 191.102 15.6112C191.102 15.0914 191.212 14.6281 191.431 14.2216C191.651 13.815 191.955 13.4751 192.341 13.2018C192.728 12.9219 193.184 12.712 193.711 12.572C194.244 12.4254 194.821 12.3521 195.44 12.3521C195.934 12.3521 196.417 12.3987 196.89 12.492C197.363 12.5853 197.79 12.6953 198.17 12.8219C198.556 12.9419 198.876 13.0619 199.13 13.1818C199.389 13.3018 199.553 13.3885 199.619 13.4418L198.97 15.2213C198.87 15.1413 198.696 15.048 198.45 14.9414C198.203 14.8281 197.92 14.7214 197.6 14.6215C197.287 14.5148 196.95 14.4249 196.59 14.3515C196.23 14.2782 195.884 14.2416 195.55 14.2416C195.197 14.2416 194.891 14.2782 194.631 14.3515C194.377 14.4182 194.167 14.5115 194.001 14.6315C193.841 14.7514 193.721 14.8947 193.641 15.0614C193.568 15.2213 193.531 15.3979 193.531 15.5912C193.531 15.7445 193.558 15.8812 193.611 16.0011C193.664 16.1211 193.744 16.2277 193.851 16.321C193.958 16.4144 194.091 16.501 194.251 16.581C194.411 16.661 194.597 16.7409 194.811 16.8209L196.69 17.5107C197.21 17.704 197.673 17.914 198.08 18.1406C198.486 18.3605 198.833 18.6138 199.12 18.9004C199.406 19.1803 199.623 19.4969 199.769 19.8501C199.923 20.2034 199.999 20.6033 199.999 21.0498C199.999 21.623 199.893 22.1362 199.679 22.5895C199.473 23.036 199.173 23.4159 198.78 23.7292C198.393 24.0424 197.923 24.2824 197.37 24.449C196.823 24.6156 196.207 24.6989 195.52 24.6989C194.947 24.6989 194.411 24.6456 193.911 24.539C193.418 24.439 192.978 24.3257 192.591 24.199C192.211 24.0657 191.895 23.9358 191.641 23.8091C191.395 23.6825 191.238 23.5925 191.172 23.5392L191.821 21.7297C191.895 21.7897 192.058 21.8796 192.311 21.9996C192.565 22.1129 192.861 22.2295 193.201 22.3495C193.541 22.4695 193.901 22.5728 194.281 22.6594C194.667 22.7461 195.031 22.7894 195.37 22.7894C195.637 22.7894 195.897 22.7661 196.15 22.7194C196.404 22.6661 196.627 22.5795 196.82 22.4595C197.013 22.3329 197.167 22.1696 197.28 21.9696C197.4 21.763 197.46 21.5031 197.46 21.1898C197.46 20.8366 197.323 20.5433 197.05 20.31C196.777 20.0768 196.41 19.8735 195.95 19.7002L193.631 18.8204Z" fill="#032163"/>
<path d="M186.194 24.6889C185.6 24.6889 185.097 24.5956 184.684 24.4089C184.271 24.2157 183.937 23.9257 183.684 23.5392C183.431 23.1459 183.248 22.6527 183.134 22.0595C183.021 21.4597 182.964 20.7532 182.964 19.9401V13.9116H180.965V12.6419H183.144V8.61296L185.704 7.95312V12.6419H189.053V13.9116H185.704V20.8299C185.704 21.503 185.787 21.9996 185.954 22.3195C186.127 22.6327 186.433 22.7894 186.873 22.7894C187.127 22.7894 187.407 22.7194 187.713 22.5794C188.026 22.4394 188.373 22.2562 188.753 22.0296L189.513 23.7291C189.339 23.8358 189.139 23.9457 188.913 24.059C188.686 24.1723 188.433 24.2756 188.153 24.369C187.873 24.4623 187.57 24.5389 187.243 24.5989C186.917 24.6589 186.567 24.6889 186.194 24.6889Z" fill="#032163"/>
<path d="M171.299 14.3515C171.479 14.0716 171.702 13.8117 171.969 13.5717C172.242 13.3251 172.542 13.1119 172.868 12.9319C173.202 12.7519 173.555 12.612 173.928 12.512C174.301 12.4054 174.678 12.3521 175.058 12.3521C175.778 12.3521 176.391 12.4554 176.897 12.662C177.404 12.8686 177.821 13.1718 178.147 13.5717C178.474 13.9716 178.71 14.4682 178.857 15.0614C179.01 15.6545 179.087 16.3377 179.087 17.1108V24.459H176.338V16.9809C176.338 16.0544 176.184 15.368 175.878 14.9214C175.578 14.4682 175.081 14.2416 174.388 14.2416C174.108 14.2416 173.822 14.2882 173.528 14.3815C173.235 14.4748 172.958 14.5915 172.699 14.7314C172.439 14.8714 172.205 15.0247 171.999 15.1913C171.792 15.358 171.632 15.5112 171.519 15.6512V24.459H168.77V12.642H170.839L171.299 14.3515Z" fill="#032163"/>
<path d="M165.431 23.5992C165.137 23.7792 164.824 23.9358 164.491 24.0691C164.158 24.2024 163.818 24.3157 163.471 24.409C163.131 24.5023 162.795 24.5723 162.462 24.6189C162.128 24.6656 161.815 24.6889 161.522 24.6889C160.609 24.6889 159.796 24.5523 159.082 24.279C158.376 23.9991 157.776 23.6025 157.283 23.0893C156.796 22.5695 156.423 21.9463 156.163 21.2198C155.91 20.4867 155.783 19.6669 155.783 18.7604C155.783 17.834 155.9 16.9809 156.133 16.2011C156.366 15.4146 156.71 14.7381 157.163 14.1716C157.623 13.5984 158.189 13.1518 158.862 12.8319C159.542 12.512 160.322 12.3521 161.202 12.3521C161.982 12.3521 162.668 12.4787 163.261 12.732C163.861 12.9786 164.364 13.3318 164.771 13.7917C165.177 14.2516 165.484 14.8048 165.691 15.4513C165.897 16.0978 166.001 16.8176 166.001 17.6107C166.001 17.8573 165.997 18.1006 165.991 18.3405C165.984 18.5805 165.974 18.8137 165.961 19.0404H158.583C158.589 19.6869 158.666 20.2467 158.812 20.7199C158.959 21.1931 159.166 21.583 159.432 21.8896C159.706 22.1962 160.035 22.4228 160.422 22.5695C160.815 22.7161 161.255 22.7894 161.742 22.7894C162.362 22.7894 162.908 22.7028 163.381 22.5295C163.854 22.3495 164.321 22.0829 164.781 21.7297L165.431 23.5992ZM163.691 17.4008C163.691 16.361 163.481 15.5779 163.061 15.0514C162.641 14.5248 162.058 14.2549 161.312 14.2416C160.859 14.2549 160.465 14.3515 160.132 14.5315C159.806 14.7048 159.529 14.9414 159.302 15.2413C159.082 15.5412 158.912 15.8912 158.792 16.2911C158.672 16.6909 158.602 17.1175 158.583 17.5707H163.691V17.4008Z" fill="#032163"/>
<path d="M138.988 24.459H136.238V12.642H138.218L138.748 14.5915C139.114 13.845 139.601 13.2851 140.207 12.9119C140.814 12.5387 141.527 12.3521 142.347 12.3521C143.167 12.3521 143.84 12.5287 144.366 12.8819C144.899 13.2285 145.296 13.7217 145.556 14.3615C145.996 13.7217 146.542 13.2285 147.195 12.8819C147.855 12.5287 148.618 12.3521 149.485 12.3521C150.085 12.3521 150.611 12.4587 151.065 12.672C151.524 12.8786 151.904 13.1752 152.204 13.5617C152.511 13.9416 152.741 14.4015 152.894 14.9414C153.047 15.4813 153.124 16.0811 153.124 16.7409V24.459H150.365V16.601C150.365 16.1544 150.325 15.7812 150.245 15.4813C150.171 15.1813 150.065 14.9414 149.925 14.7614C149.785 14.5815 149.615 14.4549 149.415 14.3815C149.215 14.3016 148.988 14.2616 148.735 14.2616C148.269 14.2616 147.819 14.3882 147.385 14.6415C146.952 14.8881 146.496 15.2513 146.016 15.7312V24.459H143.266V16.541C143.266 15.7612 143.143 15.1913 142.897 14.8314C142.65 14.4715 142.233 14.2916 141.647 14.2916C141.187 14.2916 140.734 14.4382 140.287 14.7314C139.841 15.018 139.407 15.4013 138.988 15.8812V24.459Z" fill="#032163"/>
<path d="M122.832 12.6421H125.591L128.781 21.2899L131.28 12.6421H134.079L129.85 24.809C129.537 25.7021 129.17 26.4319 128.751 26.9984C128.331 27.565 127.891 28.0082 127.431 28.3281C126.978 28.648 126.524 28.868 126.071 28.9879C125.618 29.1079 125.201 29.1679 124.822 29.1679L124.062 27.3184C124.582 27.2517 125.028 27.1484 125.401 27.0084C125.775 26.8685 126.095 26.6752 126.361 26.4286C126.634 26.182 126.864 25.8721 127.051 25.4988C127.244 25.1256 127.418 24.669 127.571 24.1292L122.832 12.6421Z" fill="#032163"/>
<path d="M115.974 14.2416C115.314 14.2416 114.661 14.3349 114.014 14.5215C113.368 14.7081 112.768 14.9714 112.215 15.3113L111.445 13.5717C111.791 13.3718 112.135 13.1952 112.475 13.0419C112.821 12.8886 113.178 12.7619 113.544 12.662C113.918 12.562 114.307 12.4854 114.714 12.432C115.121 12.3787 115.561 12.3521 116.034 12.3521C116.993 12.3521 117.783 12.4654 118.403 12.692C119.023 12.9119 119.513 13.2518 119.873 13.7117C120.239 14.1649 120.493 14.7381 120.633 15.4313C120.773 16.1244 120.843 16.9376 120.843 17.8706V24.459H118.753L118.363 22.7994C117.923 23.4659 117.41 23.9491 116.824 24.249C116.237 24.5423 115.547 24.6889 114.754 24.6889C114.128 24.6889 113.564 24.6089 113.064 24.449C112.565 24.289 112.138 24.0491 111.785 23.7292C111.438 23.4092 111.172 23.0127 110.985 22.5395C110.798 22.0663 110.705 21.5164 110.705 20.8899C110.705 20.2567 110.825 19.7069 111.065 19.2403C111.305 18.7671 111.638 18.3772 112.065 18.0706C112.491 17.7573 112.998 17.5241 113.584 17.3708C114.178 17.2175 114.827 17.1408 115.534 17.1408C115.874 17.1408 116.184 17.1542 116.464 17.1808C116.75 17.2075 117.003 17.2408 117.223 17.2808C117.443 17.3141 117.627 17.3474 117.773 17.3808C117.927 17.4141 118.037 17.4341 118.103 17.4408C118.103 16.9476 118.09 16.5043 118.063 16.1111C118.037 15.7112 117.957 15.3746 117.823 15.1014C117.69 14.8214 117.48 14.6081 117.193 14.4615C116.907 14.3149 116.5 14.2416 115.974 14.2416ZM115.464 22.7894C115.957 22.7894 116.417 22.6828 116.844 22.4695C117.277 22.2562 117.697 21.9363 118.103 21.5097V18.8404C118.05 18.8404 117.96 18.8337 117.833 18.8204C117.707 18.8004 117.56 18.7838 117.393 18.7704C117.233 18.7504 117.067 18.7338 116.894 18.7204C116.727 18.7071 116.58 18.7004 116.454 18.7004C115.974 18.7004 115.547 18.7304 115.174 18.7904C114.807 18.8504 114.494 18.957 114.234 19.1103C113.981 19.257 113.788 19.4602 113.654 19.7202C113.528 19.9734 113.464 20.2967 113.464 20.6899C113.464 21.4431 113.641 21.9829 113.994 22.3095C114.354 22.6294 114.844 22.7894 115.464 22.7894Z" fill="#032163"/>
<path d="M108.815 13.4816C108.815 14.388 108.656 15.1578 108.336 15.791C108.016 16.4175 107.539 16.9274 106.906 17.3206C106.273 17.7072 105.476 17.9871 104.517 18.1604C103.563 18.3337 102.454 18.4203 101.187 18.4203H100.018V24.4588H97.1484V8.44287H101.497C102.157 8.44287 102.794 8.47286 103.407 8.53285C104.027 8.58617 104.607 8.68614 105.146 8.83277C105.686 8.9794 106.179 9.17602 106.626 9.42262C107.073 9.66256 107.456 9.96915 107.776 10.3424C108.102 10.7156 108.356 11.1622 108.536 11.682C108.716 12.1953 108.809 12.7951 108.815 13.4816ZM101.087 16.5708C101.887 16.5708 102.59 16.5208 103.197 16.4208C103.803 16.3142 104.307 16.1476 104.707 15.921C105.113 15.6877 105.416 15.3844 105.616 15.0112C105.823 14.638 105.926 14.1781 105.926 13.6316C105.926 12.9317 105.82 12.3685 105.606 11.942C105.393 11.5154 105.09 11.1855 104.697 10.9522C104.31 10.7123 103.84 10.5557 103.287 10.4824C102.74 10.4024 102.134 10.3624 101.467 10.3624H100.018V16.5708H101.087Z" fill="#032163"/>
<path d="M90.8303 15.9812C90.8303 15.3947 90.6337 14.9715 90.2405 14.7116C89.8539 14.445 89.284 14.3117 88.5309 14.3117C88.2376 14.3117 87.9244 14.3483 87.5911 14.4216C87.2579 14.4883 86.9446 14.5649 86.6514 14.6516C86.3648 14.7382 86.1215 14.8215 85.9216 14.9015C85.7216 14.9748 85.6083 15.0148 85.5816 15.0215L84.7619 13.172C84.8218 13.1453 84.9618 13.082 85.1817 12.982C85.4084 12.8754 85.6883 12.7687 86.0215 12.6621C86.3548 12.5554 86.728 12.4588 87.1413 12.3722C87.5545 12.2855 87.9844 12.2422 88.4309 12.2422C88.8308 12.2422 89.2274 12.2688 89.6206 12.3222C90.0139 12.3688 90.3871 12.4488 90.7403 12.5621C91.1002 12.6754 91.4335 12.8254 91.7401 13.012C92.0467 13.1919 92.3099 13.4186 92.5299 13.6918C92.7565 13.9651 92.9331 14.285 93.0597 14.6516C93.1864 15.0181 93.2497 15.4414 93.2497 15.9213C93.2497 16.3811 93.1697 16.7877 93.0098 17.1409C92.8565 17.4942 92.6565 17.7974 92.4099 18.0507C92.17 18.304 91.9034 18.5039 91.6101 18.6506C91.3169 18.7905 91.0369 18.8805 90.7703 18.9205C91.0902 18.9938 91.4168 19.1204 91.7501 19.3004C92.09 19.4737 92.3966 19.7036 92.6698 19.9902C92.9498 20.2701 93.1797 20.6101 93.3597 21.01C93.5396 21.4099 93.6296 21.8731 93.6296 22.3996C93.6296 23.0928 93.493 23.6893 93.2197 24.1892C92.9464 24.6824 92.5799 25.0889 92.12 25.4088C91.6601 25.7354 91.1269 25.9754 90.5204 26.1287C89.9139 26.282 89.2807 26.3586 88.6209 26.3586C88.0943 26.3586 87.5978 26.3186 87.1313 26.2386C86.6714 26.1587 86.2648 26.0687 85.9116 25.9687C85.5583 25.8687 85.2717 25.7721 85.0518 25.6788C84.8385 25.5921 84.7119 25.5421 84.6719 25.5288L85.3717 23.5693C85.3984 23.5826 85.505 23.6293 85.6916 23.7093C85.8782 23.7893 86.1182 23.8759 86.4114 23.9692C86.7114 24.0625 87.0479 24.1492 87.4212 24.2291C87.8011 24.3025 88.191 24.3391 88.5909 24.3391C89.424 24.3391 90.0438 24.1758 90.4504 23.8492C90.857 23.5227 91.0603 23.0095 91.0603 22.3096C91.0603 21.9431 90.9803 21.6198 90.8203 21.3399C90.667 21.0533 90.4471 20.81 90.1605 20.6101C89.8806 20.4101 89.544 20.2535 89.1507 20.1402C88.7575 20.0269 88.3243 19.9536 87.8511 19.9202V17.9407C88.2243 17.9407 88.5876 17.9107 88.9408 17.8508C89.3007 17.7841 89.6206 17.6741 89.9006 17.5208C90.1805 17.3676 90.4038 17.1676 90.5704 16.921C90.7437 16.6677 90.8303 16.3545 90.8303 15.9812Z" fill="#032163"/>
<path d="M76.9748 22.7893C77.7813 22.7893 78.3945 22.4327 78.8144 21.7196C79.2409 21.0064 79.4542 19.8934 79.4542 18.3804C79.4542 17.6206 79.4042 16.9774 79.3042 16.4509C79.2043 15.9244 79.0543 15.4978 78.8544 15.1712C78.6611 14.8447 78.4211 14.608 78.1345 14.4614C77.8479 14.3148 77.5147 14.2415 77.1348 14.2415C76.6349 14.2415 76.1384 14.3481 75.6452 14.5614C75.1586 14.768 74.6621 15.0946 74.1556 15.5411V21.5696C74.5954 22.0028 75.0453 22.3161 75.5052 22.5094C75.9651 22.696 76.455 22.7893 76.9748 22.7893ZM77.3347 24.6888C76.5683 24.6888 75.8918 24.5189 75.3053 24.179C74.7187 23.839 74.2489 23.3525 73.8956 22.7193L73.3658 24.4589H71.4062V7.93308L74.1556 7.51318V13.8516C74.3888 13.605 74.6388 13.3884 74.9054 13.2017C75.1786 13.0085 75.4552 12.8518 75.7352 12.7319C76.0217 12.6052 76.3083 12.5119 76.5949 12.4519C76.8815 12.3853 77.1615 12.352 77.4347 12.352C78.2079 12.352 78.8844 12.4853 79.4642 12.7519C80.0507 13.0185 80.5406 13.4117 80.9338 13.9316C81.3271 14.4448 81.6203 15.0813 81.8136 15.8411C82.0136 16.5942 82.1135 17.4573 82.1135 18.4304C82.1135 19.5301 81.9969 20.4766 81.7636 21.2697C81.537 22.0562 81.2138 22.7027 80.7939 23.2092C80.374 23.7157 79.8708 24.089 79.2843 24.3289C78.6977 24.5689 78.0479 24.6888 77.3347 24.6888Z" fill="#032163"/>
<path d="M68.0675 23.5992C67.7742 23.7792 67.461 23.9358 67.1277 24.0691C66.7945 24.2024 66.4545 24.3157 66.108 24.409C65.7681 24.5023 65.4315 24.5723 65.0982 24.6189C64.765 24.6656 64.4517 24.6889 64.1585 24.6889C63.2454 24.6889 62.4322 24.5523 61.7191 24.279C61.0126 23.9991 60.4127 23.6025 59.9195 23.0893C59.433 22.5695 59.0598 21.9463 58.7998 21.2198C58.5466 20.4867 58.4199 19.6669 58.4199 18.7604C58.4199 17.834 58.5366 16.9809 58.7698 16.2011C59.0031 15.4146 59.3464 14.7381 59.7996 14.1716C60.2595 13.5984 60.826 13.1518 61.4991 12.8319C62.179 12.512 62.9588 12.3521 63.8385 12.3521C64.6183 12.3521 65.3048 12.4787 65.898 12.732C66.4979 12.9786 67.0011 13.3318 67.4076 13.7917C67.8142 14.2516 68.1208 14.8048 68.3274 15.4513C68.534 16.0978 68.6373 16.8176 68.6373 17.6107C68.6373 17.8573 68.634 18.1006 68.6273 18.3405C68.6207 18.5805 68.6107 18.8137 68.5973 19.0404H61.2192C61.2259 19.6869 61.3025 20.2467 61.4492 20.7199C61.5958 21.1931 61.8024 21.583 62.069 21.8896C62.3423 22.1962 62.6722 22.4228 63.0587 22.5695C63.452 22.7161 63.8919 22.7894 64.3784 22.7894C64.9983 22.7894 65.5448 22.7028 66.018 22.5295C66.4912 22.3495 66.9578 22.0829 67.4176 21.7297L68.0675 23.5992ZM66.3279 17.4008C66.3279 16.361 66.118 15.5779 65.6981 15.0514C65.2782 14.5248 64.695 14.2549 63.9485 14.2416C63.4953 14.2549 63.1021 14.3515 62.7688 14.5315C62.4422 14.7048 62.1656 14.9414 61.939 15.2413C61.7191 15.5412 61.5491 15.8912 61.4292 16.2911C61.3092 16.6909 61.2392 17.1175 61.2192 17.5707H66.3279V17.4008Z" fill="#032163"/>
<path d="M49.3525 8.44287L51.8919 21.4796L54.5312 8.44287H57.3005L53.8214 24.4888H50.1523L47.6729 10.8823L44.9936 24.4588H41.4945L38.0254 8.44287H40.7947L43.424 21.4796L45.9634 8.44287H49.3525Z" fill="#032163"/>
</svg>
