<svg width="200" height="32" viewBox="0 0 200 32" fill="none" xmlns="http://www.w3.org/2000/svg">
<g clip-path="url(#clip0_383_2209)">
<path fill-rule="evenodd" clip-rule="evenodd" d="M27.5009 31.6957C28.2067 31.6957 28.8588 31.352 29.2117 30.7939L34.6983 22.1173C36.4501 19.3467 37.0894 16.1679 36.6158 13.0993C36.5655 12.7716 36.1024 12.7006 35.9211 12.9873L33.7471 16.4253C33.4647 16.8717 32.9429 17.1468 32.3784 17.1468H21.7225C20.311 17.1468 19.0068 17.8343 18.301 18.9504L11.9523 28.9903C11.192 30.1927 12.1424 31.6957 13.6631 31.6957H27.5009ZM0.845959 18.7085C0.664688 18.9951 0.20171 18.9242 0.151129 18.5964C-0.322389 15.5279 0.316814 12.349 2.06874 9.57848L7.55537 0.90181C7.90821 0.343769 8.56035 4.47902e-07 9.26612 4.47902e-07L23.104 0C24.6246 0 25.5751 1.50302 24.8147 2.70543L18.4661 12.7454C17.7603 13.8615 16.456 14.549 15.0445 14.549H4.16048C3.73705 14.549 3.34577 14.7552 3.13403 15.0901L0.845959 18.7085Z" fill="black"/>
<path d="M198.342 21.5434C197.645 21.5434 197.104 21.4489 196.72 21.26C196.336 21.0712 196.065 20.7911 195.909 20.4199C195.759 20.0486 195.684 19.5927 195.684 19.0521V12.7117H194.043V11.3928H195.733L196.173 8.45215H197.501V11.383H199.778V12.7117H197.501V18.9935C197.501 19.3517 197.537 19.6155 197.609 19.7849C197.687 19.9477 197.814 20.0519 197.99 20.0975C198.166 20.1431 198.413 20.1659 198.732 20.1659H199.836V21.3773C199.713 21.4229 199.524 21.462 199.27 21.4945C199.022 21.5271 198.713 21.5434 198.342 21.5434Z" fill="black"/>
<path d="M187.291 21.4944V11.3927H189.011V13.3368C189.18 12.8549 189.417 12.4576 189.724 12.1449C190.03 11.8258 190.378 11.588 190.769 11.4318C191.166 11.2754 191.577 11.1973 192 11.1973C192.15 11.1973 192.296 11.207 192.44 11.2266C192.583 11.2461 192.694 11.2787 192.772 11.3243V13.073C192.674 13.0274 192.547 12.9981 192.391 12.9851C192.241 12.9656 192.114 12.9558 192.01 12.9558C191.606 12.9298 191.228 12.9558 190.876 13.0339C190.525 13.1056 190.216 13.2326 189.948 13.415C189.681 13.5973 189.47 13.8383 189.314 14.1379C189.164 14.431 189.089 14.7892 189.089 15.2126V21.4944H187.291Z" fill="black"/>
<path d="M172.736 21.4945L177.846 7.36768H179.888L184.997 21.4945H183.151L181.764 17.6257H175.97L174.573 21.4945H172.736ZM176.449 15.9649H181.265L178.862 9.13598L176.449 15.9649Z" fill="black"/>
<path d="M157.697 21.4946V6.97705H159.495V16.4438L164.243 11.3929H166.314L162.67 15.2421L166.568 21.4946H164.653L161.488 16.4242L159.495 18.4856V21.4946H157.697Z" fill="black"/>
<path d="M149.96 21.6897C149.433 21.6832 148.935 21.6083 148.466 21.465C148.003 21.3152 147.593 21.097 147.235 20.8105C146.877 20.5239 146.593 20.1689 146.385 19.7456C146.183 19.3157 146.082 18.8175 146.082 18.2508V11.3926H147.889V18.0652C147.889 18.723 148.091 19.2571 148.495 19.6674C148.905 20.0777 149.521 20.2829 150.341 20.2829C151.084 20.2829 151.68 20.0908 152.129 19.7065C152.585 19.3157 152.813 18.7361 152.813 17.9675V11.3926H154.611V21.4943H153.175L152.989 19.56C152.865 20.068 152.654 20.4783 152.354 20.7909C152.061 21.1035 151.706 21.3348 151.289 21.4846C150.879 21.6279 150.436 21.6962 149.96 21.6897Z" fill="black"/>
<path d="M134.99 21.4946V6.97705H136.749V12.8779C136.918 12.5978 137.146 12.3373 137.432 12.0963C137.719 11.8488 138.068 11.6502 138.478 11.5003C138.888 11.3441 139.364 11.2659 139.904 11.2659C140.562 11.2659 141.158 11.3896 141.692 11.6371C142.226 11.8781 142.65 12.2233 142.962 12.6727C143.275 13.1221 143.431 13.6562 143.431 14.2749V21.4946H141.624V14.6364C141.624 14.0307 141.415 13.565 140.998 13.2393C140.588 12.9072 140.051 12.7411 139.386 12.7411C138.937 12.7411 138.514 12.816 138.116 12.9658C137.719 13.1091 137.397 13.3305 137.149 13.6301C136.908 13.9232 136.788 14.2977 136.788 14.7536V21.4946H134.99Z" fill="black"/>
<path d="M128.541 21.6898C127.629 21.6898 126.822 21.4911 126.118 21.0938C125.421 20.6966 124.874 20.1104 124.477 19.3353C124.086 18.5603 123.891 17.6094 123.891 16.4826C123.891 15.4275 124.07 14.5059 124.428 13.7178C124.793 12.9232 125.32 12.3045 126.011 11.8616C126.707 11.4187 127.551 11.1973 128.541 11.1973C129.264 11.1973 129.912 11.3373 130.485 11.6174C131.065 11.8909 131.54 12.2817 131.912 12.7897C132.283 13.2977 132.511 13.8969 132.595 14.5873H130.993C130.934 14.2356 130.798 13.9132 130.583 13.6201C130.374 13.327 130.098 13.0926 129.752 12.9167C129.414 12.7409 129.013 12.653 128.551 12.653C127.685 12.653 126.978 12.9656 126.431 13.5908C125.89 14.2161 125.62 15.1735 125.62 16.4631C125.62 17.6289 125.867 18.5635 126.362 19.2669C126.864 19.9638 127.6 20.3123 128.57 20.3123C129.033 20.3123 129.436 20.2244 129.782 20.0485C130.127 19.8661 130.404 19.6284 130.612 19.3353C130.821 19.0357 130.954 18.7166 131.013 18.3779H132.585C132.501 19.0553 132.27 19.6414 131.892 20.1364C131.521 20.6314 131.045 21.0157 130.466 21.2892C129.893 21.5563 129.251 21.6898 128.541 21.6898Z" fill="black"/>
<path d="M113.199 21.4944V11.3927H114.948V12.8581C115.111 12.578 115.335 12.3142 115.622 12.0668C115.915 11.8192 116.267 11.6206 116.677 11.4708C117.094 11.321 117.573 11.2461 118.113 11.2461C118.751 11.2461 119.338 11.3731 119.872 11.6271C120.412 11.8811 120.842 12.2784 121.161 12.819C121.487 13.3531 121.65 14.0435 121.65 14.8902V21.4944H119.842V15.066C119.842 14.2779 119.634 13.695 119.217 13.3173C118.807 12.933 118.273 12.7408 117.615 12.7408C117.159 12.7408 116.732 12.8158 116.335 12.9656C115.938 13.1088 115.615 13.3303 115.368 13.6299C115.12 13.923 114.997 14.2942 114.997 14.7436V21.4944H113.199Z" fill="black"/>
<path d="M105.232 21.6898C104.574 21.6898 103.994 21.5758 103.493 21.3479C102.998 21.1134 102.607 20.778 102.32 20.3416C102.04 19.9052 101.9 19.3777 101.9 18.7589C101.9 17.6387 102.291 16.805 103.073 16.2579C103.854 15.7108 105.108 15.4177 106.834 15.3787L108.632 15.3298V14.5385C108.632 13.9197 108.446 13.4312 108.075 13.073C107.704 12.7083 107.13 12.526 106.355 12.526C105.776 12.5324 105.264 12.6692 104.821 12.9363C104.379 13.2033 104.095 13.6397 103.971 14.2454H102.379C102.418 13.5876 102.601 13.0339 102.926 12.5846C103.258 12.1286 103.724 11.7834 104.323 11.549C104.923 11.3145 105.629 11.1973 106.443 11.1973C107.323 11.1973 108.052 11.321 108.632 11.5685C109.218 11.816 109.654 12.1808 109.941 12.6627C110.234 13.1447 110.38 13.7374 110.38 14.4408V21.4944H108.837L108.7 19.5991C108.316 20.3872 107.821 20.9343 107.215 21.2404C106.616 21.54 105.955 21.6898 105.232 21.6898ZM105.769 20.3905C106.114 20.3905 106.453 20.3286 106.785 20.2048C107.124 20.0811 107.43 19.915 107.704 19.7066C107.983 19.4917 108.208 19.2539 108.378 18.9934C108.547 18.7264 108.632 18.4528 108.632 18.1727V16.4435L107.137 16.4728C106.362 16.4859 105.717 16.564 105.202 16.7073C104.688 16.8506 104.3 17.0753 104.04 17.3814C103.779 17.6875 103.649 18.0881 103.649 18.5831C103.649 19.1497 103.848 19.5926 104.245 19.9117C104.642 20.2309 105.15 20.3905 105.769 20.3905Z" fill="black"/>
<path d="M93.1786 24.7183C92.5858 24.7183 92.1789 24.6759 91.9573 24.5913C91.7361 24.5066 91.6251 24.4643 91.6251 24.4643V23.2919L92.661 23.3115C93.0321 23.3245 93.3415 23.2984 93.589 23.2333C93.8366 23.1682 94.035 23.0802 94.1849 22.9695C94.3348 22.8588 94.4486 22.7351 94.5269 22.5983C94.6115 22.4615 94.68 22.3312 94.732 22.2075L95.0838 21.2501L91.1367 11.3926H92.9637L95.9434 19.1887L98.9034 11.3926H100.672L96.422 22.2563C96.1551 22.8946 95.8587 23.3929 95.5332 23.7511C95.2141 24.1093 94.8556 24.3601 94.4584 24.5034C94.0676 24.6467 93.641 24.7183 93.1786 24.7183Z" fill="black"/>
<path d="M75.5898 21.4944V11.3927H77.329V12.8581C77.6089 12.4152 77.9933 12.0277 78.4818 11.6955C78.9702 11.3634 79.6054 11.1973 80.3867 11.1973C80.7515 11.1973 81.1226 11.2591 81.5005 11.3829C81.8849 11.5066 82.2364 11.6923 82.5556 11.9398C82.8748 12.1873 83.1223 12.4901 83.2982 12.8483C83.6108 12.3533 84.0342 11.956 84.5683 11.6564C85.1024 11.3503 85.7046 11.1973 86.3756 11.1973C86.7274 11.1973 87.0954 11.2526 87.4795 11.3634C87.8637 11.4676 88.2187 11.6564 88.5445 11.93C88.8767 12.197 89.1467 12.5715 89.3553 13.0535C89.5635 13.5289 89.6678 14.1412 89.6678 14.8902V21.4944H87.8507V15.066C87.8507 14.4538 87.7531 13.9816 87.5575 13.6494C87.3623 13.3108 87.1049 13.073 86.7857 12.9363C86.4732 12.7995 86.1379 12.7311 85.7797 12.7311C85.4669 12.7311 85.1347 12.793 84.7832 12.9167C84.4314 13.0405 84.1318 13.2489 83.8843 13.542C83.6368 13.835 83.5131 14.2356 83.5131 14.7436V21.4944H81.7154V14.5385C81.7154 14.1412 81.6079 13.809 81.393 13.542C81.1848 13.2749 80.9207 13.073 80.6016 12.9363C80.2891 12.7995 79.9765 12.7311 79.6637 12.7311C79.3185 12.7311 78.9702 12.7995 78.6184 12.9363C78.2732 13.073 77.9803 13.2912 77.7391 13.5908C77.5049 13.8839 77.3876 14.2682 77.3876 14.7436V21.4944H75.5898Z" fill="black"/>
<path d="M68.7931 21.6898C67.8552 21.6898 67.0279 21.4846 66.3116 21.0743C65.595 20.664 65.0349 20.0746 64.6311 19.306C64.2273 18.5375 64.0254 17.6159 64.0254 16.5412C64.0254 15.4796 64.2076 14.5482 64.5725 13.7471C64.9373 12.946 65.4647 12.3208 66.155 11.8714C66.852 11.422 67.6891 11.1973 68.666 11.1973C69.6168 11.1973 70.4213 11.4024 71.079 11.8128C71.737 12.2231 72.2352 12.8027 72.5737 13.5518C72.9189 14.2942 73.0916 15.1768 73.0916 16.1993V16.8636H65.8523C65.8523 17.5019 65.9566 18.0816 66.1649 18.6026C66.3797 19.1171 66.7024 19.5275 67.1322 19.8336C67.562 20.1397 68.1059 20.2927 68.7636 20.2927C69.4083 20.2927 69.962 20.1429 70.4244 19.8434C70.8935 19.5437 71.1931 19.1106 71.3233 18.544H73.0232C72.9059 19.2279 72.6324 19.8043 72.2026 20.2732C71.7791 20.7421 71.2679 21.0971 70.6688 21.3381C70.0761 21.5726 69.4507 21.6898 68.7931 21.6898ZM65.8622 15.6424H71.3525C71.3525 15.0628 71.2549 14.5417 71.0596 14.0793C70.8641 13.6104 70.5645 13.2424 70.1607 12.9753C69.7633 12.7018 69.2618 12.565 68.6561 12.565C68.0244 12.565 67.5002 12.7181 67.0834 13.0242C66.6663 13.3238 66.3569 13.7113 66.155 14.1868C65.9531 14.6557 65.8555 15.1409 65.8622 15.6424Z" fill="black"/>
<path d="M51.3477 21.4945V7.36768C51.3933 7.36768 51.5299 7.37094 51.7581 7.37744C51.9923 7.37744 52.2757 7.37744 52.6079 7.37744C52.94 7.37094 53.2852 7.37094 53.6434 7.37744C54.0019 7.37744 54.3305 7.3807 54.6304 7.3872C56.3626 7.41325 57.7664 7.69658 58.8408 8.23715C59.922 8.77123 60.7134 9.54955 61.2149 10.5721C61.7229 11.5946 61.9768 12.8517 61.9768 14.3431C61.9768 15.9063 61.7033 17.2187 61.1562 18.2803C60.6158 19.3419 59.7885 20.143 58.6748 20.6836C57.5676 21.2242 56.1575 21.4945 54.4446 21.4945H51.3477ZM53.2038 19.9411H54.4446C55.6104 19.9411 56.6136 19.762 57.4535 19.4038C58.2938 19.0391 58.9385 18.4496 59.3879 17.6355C59.844 16.8214 60.0719 15.7337 60.0719 14.3725C60.0719 13.0112 59.8504 11.9333 59.4076 11.1387C58.9711 10.3441 58.3394 9.7775 57.5122 9.43883C56.6852 9.09363 55.6887 8.92105 54.5226 8.92105H53.2038V19.9411Z" fill="black"/>
</g>
<defs>
<clipPath id="clip0_383_2209">
<rect width="200" height="31.6957" fill="white"/>
</clipPath>
</defs>
</svg>
