<?xml version="1.0" encoding="UTF-8"?><svg id="Layer_1" xmlns="http://www.w3.org/2000/svg" width="200" height="44.4253" xmlns:xlink="http://www.w3.org/1999/xlink" viewBox="0 0 200 44.4253"><defs><radialGradient id="radial-gradient" cx="100" cy="42.6745" fx="100" fy="42.6745" r="70.7215" gradientUnits="userSpaceOnUse"><stop offset="0" stop-color="#f1ec37"/><stop offset="1" stop-color="#fff"/></radialGradient></defs><path d="M15.5174,31.3031c0,.5484-.6873,1.5235-1.2256,1.7387-.4545.2125-2.3825.3052-6.4363.3052-2.781,0-4.9775,0-6.8555-.0972h-.0006c-.365,0-.9995-.2266-.9995-1.0748V11.6722c0-.3478.2563-.5906.6231-.5906h1.0332c.7041,0,.9784.3014.9784,1.075v18.081c0,.6418.1493.7331.7006.7331.9076.0323,2.4365.0323,4.5525.0323,3.2581,0,5.6068-.1288,7.09-.2256h.001c.2745,0,.5386.1806.5386.5257ZM29.8174,16.8946c.8405.9106,1.2158,2.0931,1.2158,6.6919v8.653c0,.5237-.3613.6242-.633.6541-1.3533.2062-3.5337.4533-6.1893.4533-3.3293,0-5.0716-.3523-6.0138-1.2158-.7983-.659-1.2606-2.0577-1.2606-3.8307,0-1.9414.4659-3.4393,1.2462-4.0068.8947-.5851,5.161-1.0713,9.9323-1.1366.3535,0,.4127-.1365.4127-.4424,0-2.5494-.1876-3.5877-.7436-4.1145-.585-.5231-1.6946-.7192-4.0898-.7192-1.7266,0-3.7839.2598-5.2128.4792-.1317.0434-.2785.0219-.3979-.0588-.1321-.0893-.2108-.2379-.2108-.3974,0-.548.589-1.354,1.0712-1.6294.7213-.3968,2.8859-.6727,5.2669-.6727,3.0989,0,4.7757.3865,5.6065,1.2928ZM28.5276,25.7175c0-.4424-.0911-.4424-.4747-.4424-3.1791,0-7.4789.3288-8.0504.737-.3732.3116-.5605,1.0316-.5605,2.1915,0,1.103.2756,1.9375.7563,2.2898.5462.4768,1.8437.7034,3.9803.7034,2.5964,0,3.8444-.2803,4.0213-.4571l.0189-.0166c.2179-.1695.3089-.4315.3089-1.6153v-3.3902ZM60.7019,16.0782c-.0961-.1198-.2511-.1857-.4364-.1857h-.6136c-.9455,0-1.3378.3419-1.5555,1.3577l-2.5177,12.4602c-.2555,1.1812-.4403,1.2926-1.1896,1.2926-.7099,0-.9517-.2289-1.1242-1.0627l-2.0668-10.5278c-.2286-1.1098-.5245-1.7987-.9653-2.2394-.4566-.4213-1.2417-.635-2.3335-.635-1.3303,0-2.0349.3599-2.3969.6664-.4217.3832-.6833.9804-.9658,2.205l-2.3578,10.6269c-.1518.7587-.3866.9665-1.0922.9665-.7874,0-1.0429-.2074-1.1887-.9651l-2.5188-12.7887c-.2101-1.0144-.5943-1.3567-1.523-1.3567h-.6136c-.2861,0-.4408.1181-.5203.217-.1072.1339-.142.3167-.0985.5114l2.8742,13.9839c.2603,1.1716.5631,1.8153,1.0045,2.1461.508.4234,1.2192.5961,2.455.5961,1.1489,0,1.9414-.1949,2.4166-.591.5376-.4137.8772-1.1114,1.1725-2.4108l2.227-10.3611c.2252-.9646.3887-1.1342,1.0936-1.1342.5692,0,.712.0976.9305,1.128l2.0985,10.4926c.2612,1.3377.5262,1.9156,1.0381,2.2804.4812.4011,1.2631.5961,2.3903.5961,1.4378,0,1.9986-.3018,2.3934-.6309.5746-.4979.9535-1.3196,1.2281-2.6626l2.841-13.4938c.0541-.2432-.0163-.3961-.0849-.4815ZM89.5987,16.14c1.2193,1.3718,2.6729,3.7581,2.6729,7.337,0,3.8299-1.3613,6.9585-3.6418,8.3713-1.382.8858-3.5861,1.4754-9.8275,1.4754-3.7673,0-6.8758-.0457-9.5033-.1398l-.0536-.0035c-1.1993-.1202-1.9154-.8832-1.9154-2.0411V1.9758c0-.9958.7023-1.6668,1.7497-1.674.5607-.0207,1.1631-.0461,1.801-.0731,2.1685-.0915,4.8673-.2055,7.6896-.2055,6.4225,0,8.5532.5916,9.9093,1.5459,1.7859,1.2502,2.7704,3.6709,2.7704,6.815,0,3.3501-1.0456,5.4495-1.6688,6.4027-.1073.1609-.4208.6307-.4208.7489,0,.0854,0,.2025.3727.538l.0658.0661ZM72.1637,13.632c0,.1738.0089.286.0184.3564.0694.007.179.0131.3511.0131h8.7304c1.686,0,2.9042,0,3.3896-.3237l.0337-.0213c.5661-.3398,1.6367-1.7526,1.6367-4.6685,0-2.5778-.7825-3.4321-1.3808-3.8461-.9265-.553-2.6751-.7493-6.6513-.7493-2.1954,0-4.3284.0514-5.7059.1378-.2199.01-.3394.0323-.3992.0483-.0105.0573-.0227.1673-.0227.3693v8.6841ZM87.3453,23.3839c0-2.4083-1.0057-4.2107-1.9519-4.684l-.0692-.0387c-.5374-.3359-1.3483-.3836-4.0607-.3836h-8.684c-.1986,0-.3137.0108-.3781.0209-.0171.0835-.0377.2526-.0377.5808v9.6592c0,.1965.0257.288.0379.3204.0369.0151.1507.0491.4243.0491l.0577.002c1.2851.0886,3.4747.1374,6.1652.1374,2.5125,0,5.5457-.0991,6.7616-.8694,1.103-.8564,1.7349-2.6012,1.7349-4.7942ZM119.8496,28.5598l-.0502.0016c-3.0649.184-6.5478.2772-10.3521.2772-3.1747,0-4.7682,0-6.0533-.0459l-.03-.0006c-.2138,0-.3213-.0184-.3703-.0311-.0172-.0565-.0457-.1928-.0457-.4778v-9.1021c0-.1748.0061-.2903.0134-.3662.0335-.002.0744-.0033.1239-.0033h12.492c.9401,0,1.5719,0,2.1039-.3505.9096-.4944,1.7061-1.8587,1.7061-2.6235,0-.8066-.6176-1.4881-1.3487-1.4881h-14.9997c-.0194,0-.0509,0-.0869-.0004-.0024-.0497-.004-.1101-.004-.1832V5.1567c0-.3005.0168-.4461.0315-.5159.0521-.0137.151-.0317.3238-.0399,1.4714-.0446,4.0767-.0925,6.3297-.0925,3.8193,0,7.5716.0997,9.6244.1849l.0348.0008c.8207,0,1.4883-.6467,1.4883-1.4414,0-1.0521-1.1069-2.592-2.0777-2.8907l-.0645-.017c-1.2136-.2696-6.9617-.2987-9.3768-.2987-3.1491,0-5.4436.0856-7.6624.1683-.5968.0223-1.1854.0442-1.7801.0639-1.0362.0068-1.7048.6805-1.7048,1.7203v29.0706c0,1.4676.9451,2.1297,1.8879,2.1383,2.4293.0929,5.6697.0929,9.7705.0929,6.3691,0,8.5359-.0899,9.2737-.3851.9855-.3943,2.152-2.0493,2.152-3.0534,0-.779-.5421-1.3024-1.3487-1.3024ZM154.8379,30.8195c.1668.5272.2291.7245.2291,1.1323,0,.6739-.6353,1.3952-1.5809,1.3952h-.6967c-1.6269,0-2.6647-.8508-3.173-2.601l-2.516-8.5752c-.131-.5241-.2399-.5908-.2983-.6267-.2911-.1783-1.0881-.1783-1.3501-.1783h-11.7489c-1.3612,0-1.4988.097-1.8415,1.2965l-2.3692,8.1768c-.4971,1.7109-1.5497,2.508-3.3124,2.508h-.5108c-.9024,0-1.4418-.7094-1.4418-1.3952,0-.4301.0751-.6928.1885-1.0903.0338-.1183.0733-.2563.1183-.4254l.0092-.0315,6.7802-21.9658c1.4114-4.658,2.3385-6.1232,3.4622-7.0784l.0194-.016c1.1151-.892,2.8692-1.3444,5.2136-1.3444,2.3809,0,3.9304.3851,5.0239,1.2484l.0235.0192c1.1552.9818,1.9406,2.7042,3.233,7.0887l6.4557,22.2006.0831.2625ZM145.6346,16.9753c-.0176-.2365-.2301-1.0068-.4547-1.8208-.0653-.2367-.1361-.4928-.2111-.7683l-.0008-.0031-1.3467-5.0153c-.7261-2.577-1.3354-4.0101-1.9146-4.5002l-.0225-.0197c-.2469-.2244-.642-.432-1.8511-.432-.9384,0-1.6036.155-1.9772.4608l-.0278.0215c-.5839.4383-1.1131,1.6629-2.0224,4.6801l-1.5325,5.1072c-.3673,1.3131-.5139,2.0272-.5218,2.1833,0,.051.002.0909.0047.1214.1105.0248.3433.053.8293.053h10.3093c.4193,0,.6367-.0389.7399-.0676ZM199.9895,31.715l-3.1562-26.9204c-.1824-1.8232-.6737-2.983-1.5931-3.7607-.0205-.0174-.042-.0338-.0641-.0493-.9374-.6488-2.1729-.9382-4.0064-.9382-2.0143,0-3.3759.3388-4.2897,1.0697-.9165.7446-1.4523,1.77-1.9111,3.6563l-5.0619,20.7591c-.2952,1.2171-.3505,1.2171-1.2756,1.2171-.5941,0-.7741-.0909-.8647-.1701-.164-.1435-.3136-.5012-.4537-1.0787l-4.6445-20.806c-.4418-1.9639-.9231-2.9486-1.7721-3.6219-.815-.6901-2.098-1.0255-3.9212-1.0255-2.0417,0-3.4657.3697-4.3569,1.1335-.8662.7505-1.4644,1.7471-1.7676,4.3769l-3.485,26.163c-.0207.1875-.0843.7579.2983,1.1855.1613.1802.4573.3951.9522.3951h.65c1.3166,0,2.6929-.2923,2.9222-2.4579l3.2506-24.8462c.1892-1.6271.3163-1.6271,1.3039-1.6271.8158,0,1.0645.0557,1.3647,1.2944l4.6443,20.9002c.3849,1.7039.892,2.8,1.5962,3.4496.0063.0059.0127.0117.0194.0174.8324.7214,2.22,1.0871,4.1245,1.0871,1.8507,0,3.2436-.3572,4.1399-1.0615.0065-.0049.0125-.01.0188-.0152.7661-.6385,1.3743-1.8159,1.8104-3.5112l5.0568-20.8787c.3208-1.2029.4659-1.282,1.3268-1.282,1.034,0,1.1688.2145,1.2574,1.0715l2.9701,25.1963c.173,1.8419,1.0461,2.6634,2.8311,2.6634h.7431c.4064,0,.7663-.1505,1.0138-.424.183-.2023.389-.5656.3292-1.1614Z" fill="#050707"/><ellipse cx="100" cy="42.6745" rx="100" ry="1.7508" fill="url(#radial-gradient)"/></svg>