<svg width="96" height="64" viewBox="0 0 96 64" fill="none" xmlns="http://www.w3.org/2000/svg">
<path fill-rule="evenodd" clip-rule="evenodd" d="M95.0508 5.64098C94.0807 2.20968 91.1434 0 87.5505 0C86.1043 0 84.5863 0.359302 83.1581 1.04197C82.4305 1.39228 81.7927 1.80547 81.2448 2.26358C79.9693 0.880278 78.1818 0.0718613 76.1877 0.0718613C73.9241 0.0718613 71.5527 1.14975 69.855 2.94624C69.1364 3.70975 68.5705 4.55411 68.1663 5.46134C67.5825 5.38049 66.9896 5.33558 66.3968 5.33558C64.735 5.33558 63.0373 5.65895 61.0612 6.34161C59.3725 6.92547 57.4233 7.82372 56.0041 9.61123C55.7885 9.53038 55.5639 9.44056 55.3304 9.3687C54.01 8.94653 52.7255 8.74891 51.4051 8.74891C49.7433 8.74891 48.0456 9.07228 46.0695 9.75495C44.9467 10.1412 43.7161 10.6712 42.5933 11.4975C41.9106 11.291 41.1112 11.1652 40.2039 11.1652C36.7637 11.1652 32.6138 13.0335 29.8023 15.8181C28.6974 14.1653 27.0446 13.4198 26.4967 13.1683C25.9757 12.9258 25.4188 12.7281 24.817 12.5395C24.826 11.785 24.799 11.3089 24.7541 10.9496C24.5475 9.16211 23.9008 7.67101 22.8408 6.53024C21.6372 5.23677 19.9934 4.52716 18.2239 4.52716C17.622 4.52716 17.0202 4.608 16.4364 4.76968C13.4452 5.59607 11.4421 8.22793 10.454 12.6293C8.82822 13.1323 7.38205 13.815 6.1245 14.6773C3.04352 16.7972 1.14822 19.977 0.654189 23.8484C0.205066 27.3606 1.37278 29.5343 2.43271 30.738C2.72015 31.0703 3.03454 31.3667 3.37587 31.6272C0.717065 34.7711 -0.378799 37.7802 0.115236 40.5827C0.510464 42.8014 1.8758 44.6787 3.97769 45.8644C4.27412 46.0351 4.59749 46.1878 4.9478 46.3405C4.98373 46.3585 5.01966 46.3674 5.05559 46.3854C5.2532 46.4662 5.4598 46.5471 5.66639 46.61C5.75622 48.9095 6.66345 50.3736 7.46289 51.218C8.60366 52.4306 10.1666 53.0953 11.8553 53.0953C12.4931 53.0953 13.1308 52.9965 13.7596 52.8079C13.7686 53.23 13.7955 53.6522 13.8404 54.0654C14.1369 56.823 15.1159 59.1944 16.6609 60.937C18.4215 62.9131 20.8557 64 23.5056 64C25.85 64 28.3112 63.1377 30.6197 61.5029C32.8832 59.904 35.1378 57.5237 36.7996 54.9816C37.2128 54.3528 37.5811 53.733 37.9044 53.1043C39.171 53.6253 40.5632 53.8947 42.0274 53.8947C42.755 53.8947 43.5005 53.8229 44.246 53.6881C46.4647 53.2839 48.6205 52.2869 50.5248 50.8227C51.3242 51.2629 52.4201 51.6222 53.8483 51.6222C55.8604 51.6222 58.0072 50.8856 59.2378 50.1491C59.3994 50.0502 59.5522 49.9604 59.6959 49.8616C60.136 49.9425 60.6211 49.9874 61.151 49.9874C62.3637 49.9874 63.7739 49.7448 65.0135 49.3137C66.5136 48.7927 67.7262 48.0382 68.6154 47.0411C69.6215 47.5082 70.7443 47.7507 71.939 47.7507C76.008 47.7507 79.4213 45.1279 79.8794 41.6427C80.0501 40.3043 80.4723 36.7023 80.8046 33.7201C81.4783 32.9566 82.5832 31.5644 82.7359 29.4175C82.7359 29.3726 82.7359 29.3187 82.7359 29.2738C82.7628 29.2379 82.7898 29.211 82.8077 29.175C83.4455 28.2588 84.8288 26.0761 86.4277 23.552C88.1074 20.9022 90.4069 17.2733 91.0267 16.4469C91.1884 16.2313 91.4219 15.9439 91.6644 15.6385C93.3801 13.5006 96.2635 9.90765 95.0508 5.632V5.64098Z" fill="#232323"/>
<path fill-rule="evenodd" clip-rule="evenodd" d="M25.1321 23.6776C23.65 25.0609 16.0598 32.166 16.0598 32.166C16.0598 32.166 19.6348 30.5223 20.6588 30.0103C23.5871 28.5192 25.195 32.696 22.2308 35.1752C20.3534 36.7381 18.3324 38.4089 16.1496 39.7742C15.8442 41.939 15.3143 44.966 14.5598 46.502C13.41 48.8375 10.0685 49.6549 10.2841 45.9182C10.356 44.6966 10.5626 43.2414 10.7332 42.2264C10.4458 42.2983 10.1494 42.3701 9.85295 42.424C8.84692 42.6216 7.74208 42.5049 6.78095 42.1006C6.77197 42.1006 6.76299 42.1006 6.75401 42.0917C6.58334 42.0198 6.41267 41.939 6.25098 41.8491C4.33772 40.7712 3.5832 38.5166 6.92468 34.5823C7.25703 34.1961 8.16425 33.2439 9.29604 32.0762C12.3052 28.9773 17.8833 23.2465 17.8833 23.2465C17.8833 23.2465 14.3801 23.8483 13.0058 25.7436C10.4997 29.1659 4.49941 30.2169 5.23597 24.4501C5.97253 18.6924 10.7692 16.9767 14.4969 16.4737C14.5059 16.4737 14.5148 16.4737 14.5238 16.4737C14.7574 14.0664 15.476 9.83566 17.6677 9.23384C18.7725 8.92843 19.9492 9.46738 20.1828 11.4884C20.2906 12.4316 20.1199 14.5155 19.9313 16.33C20.2277 16.3569 20.5241 16.3929 20.8295 16.4288C20.9643 16.4468 21.09 16.4647 21.2158 16.4827C21.2966 16.4917 21.3864 16.5096 21.4673 16.5186C21.7637 16.5635 22.0691 16.6174 22.3655 16.6803C23.129 16.842 23.8925 17.0576 24.6021 17.3719C25.1231 17.6055 25.689 17.9289 26.0034 18.4229C26.9645 19.9319 26.6142 22.2943 25.1321 23.6866V23.6776Z" fill="#FEA6CC"/>
<path fill-rule="evenodd" clip-rule="evenodd" d="M68.9198 10.3477C66.8179 9.68298 64.9495 9.86264 62.5692 10.689C60.5212 11.3986 59.4613 12.1711 58.9582 13.7161C58.4373 15.306 59.5691 15.9887 60.6919 16.1773L59.9014 21.0638C58.5361 21.6027 57.7007 22.5728 57.4672 23.7226C57.2606 24.7556 57.4043 26.058 59.1109 26.6059C60.7637 27.1449 63.5842 26.3005 66.7011 24.9352C73.2044 22.0788 75.3692 12.3867 68.9198 10.3387V10.3477ZM67.3119 18.3061C66.7371 20.0308 64.6441 20.3721 64.1771 20.426L64.9585 15.5755C65.0304 15.5755 65.0933 15.5665 65.1561 15.5575C66.3688 15.4857 68.0754 16.0066 67.3119 18.3061Z" fill="#FEA6CC"/>
<path fill-rule="evenodd" clip-rule="evenodd" d="M73.2062 22.7525C72.1912 23.8753 71.9217 24.9442 72.281 26.2916C72.8559 28.4384 77.0507 29.4354 79.0268 26.57C80.3562 24.6388 86.0601 15.4318 87.3266 13.7161C88.5931 12.0005 91.2969 9.29675 90.6232 6.89844C89.9495 4.50012 87.5063 4.08693 85.1529 5.20974C82.4312 6.50321 82.1617 9.79977 81.2365 12.9975C80.2844 11.6771 79.1616 8.84763 78.4879 6.53914C77.3651 2.71261 71.8498 5.45226 72.0564 9.03626C72.1103 9.97942 72.263 10.4016 72.6223 11.3897C73.3499 13.3299 75.362 16.7073 77.1046 18.7283C76.4309 19.8152 73.7182 22.1866 73.2062 22.7615V22.7525Z" fill="#FEA6CC"/>
<path fill-rule="evenodd" clip-rule="evenodd" d="M53.9393 13.7611C51.8374 13.0964 49.9691 13.2761 47.5887 14.1114C45.5407 14.821 44.4898 15.5935 43.9778 17.1385C43.4568 18.7284 44.5886 19.4111 45.7114 19.5997L44.9209 24.4862C43.5556 25.0251 42.7202 25.9952 42.4867 27.145C42.2801 28.178 42.4238 29.4804 44.1305 30.0283C45.7832 30.5673 48.6037 29.7229 51.7206 28.3576C58.2239 25.5012 60.3887 15.8091 53.9393 13.7611ZM52.3314 21.7196C51.7566 23.4442 49.6637 23.7855 49.1966 23.8394L49.9781 18.9889C50.0409 18.9889 50.1128 18.9799 50.1757 18.9709C51.3883 18.8991 53.095 19.4201 52.3314 21.7196Z" fill="#FEA6CC"/>
<path fill-rule="evenodd" clip-rule="evenodd" d="M32.9637 19.1865C30.0803 22.1327 28.4725 24.037 25.9753 29.0133C24.8166 31.3218 24.6549 32.5703 24.8795 33.2799C25.4005 34.9058 27.4125 34.4477 28.5713 34.0524C29.6582 33.6842 30.8169 32.8937 31.3918 31.9326C32.7481 29.678 33.0805 28.4025 33.9787 28.5013C34.6704 28.5821 34.7782 28.9234 35.0566 29.4354C35.8022 30.8008 36.7543 32.1032 38.1556 32.0314C39.7724 31.9416 40.9132 30.9176 41.3892 28.5642C41.6318 27.3695 42.4761 20.0847 42.6558 18.1355C43.0241 14.1204 36.3501 15.7192 32.9637 19.1775V19.1865ZM37.5448 23.4441C37.1765 24.6478 34.338 26.4084 34.338 26.4084C34.338 26.4084 32.9996 23.3903 35.1554 22.474C36.395 21.9531 37.904 22.2405 37.5358 23.4441H37.5448Z" fill="#FEA6CC"/>
<path fill-rule="evenodd" clip-rule="evenodd" d="M52.5551 46.6727C52.1958 46.3763 52.2048 45.9452 52.2137 45.5499C53.0491 41.409 53.5431 36.7741 53.1479 33.235C53.0671 32.5074 53.5162 32.0673 54.145 31.5822C55.2857 30.693 59.9925 29.3186 59.8309 31.4744C59.741 32.6152 59.6153 33.747 59.4805 34.8788C59.1662 37.3849 58.7709 39.891 58.5374 42.4061C58.3757 44.1038 58.7081 45.1098 56.8846 46.1967C55.9594 46.7446 53.5431 47.4542 52.5641 46.6638L52.5551 46.6727Z" fill="#FEA6CC"/>
<path fill-rule="evenodd" clip-rule="evenodd" d="M44.9284 32.5793C40.5001 33.3877 36.5658 37.7532 36.1526 42.3342C35.7394 46.9063 38.991 49.9693 43.4194 49.1609C47.8477 48.3525 51.7821 43.987 52.1953 39.4059C52.6084 34.8339 49.3568 31.7708 44.9284 32.5793ZM46.5453 40.2952C46.1321 42.6576 44.7578 44.7685 43.4733 45.002C42.1888 45.2355 41.4882 43.5109 41.8924 41.1396C42.3056 38.7772 43.6799 36.6663 44.9644 36.4327C46.2489 36.1992 46.9585 37.9238 46.5453 40.2952Z" fill="#FEA6CC"/>
<path fill-rule="evenodd" clip-rule="evenodd" d="M33.7911 42.2174C35.7582 40.8611 36.9978 37.7532 36.1894 35.4986C35.2103 32.7769 31.4646 33.8997 29.5064 34.8249C23.1648 37.825 17.6855 46.6997 18.4221 53.5623C19.0149 59.1045 23.1918 61.0986 27.9525 57.7301C31.3478 55.3318 35.4708 50.0232 35.1654 45.7655C35.0666 44.3912 34.2671 43.448 32.8928 44.4181C31.5185 45.3882 29.749 48.577 28.1142 48.8106C25.7069 49.1429 26.165 46.6727 26.6051 45.2266C27.1261 43.5109 28.5453 40.906 30.1801 39.9898C30.243 39.9539 30.4586 39.8191 30.5035 39.8551C30.2161 40.6096 30.1083 41.7234 30.746 42.3252C31.5544 43.0977 32.9557 42.7743 33.7821 42.2085L33.7911 42.2174Z" fill="#FEA6CC"/>
<path fill-rule="evenodd" clip-rule="evenodd" d="M75.6294 29.6511C74.1114 29.6511 72.7281 29.0582 71.8478 28.1151C71.2999 28.9055 70.9316 29.9744 70.8777 31.3667C70.8508 32.0494 70.4556 35.3459 70.3837 36.0286C70.231 36.0196 68.8836 32.4446 68.5872 30.9625C68.2369 29.2379 67.2488 28.5462 64.7786 28.7259C62.7127 28.8786 60.6467 29.6061 60.7006 31.2769C60.8264 34.789 59.5598 42.5499 59.3443 43.9421C59.0568 45.8554 61.9312 45.5051 63.4852 44.9751C66.135 44.0589 65.8655 42.469 65.8475 40.5019C65.8386 39.1365 66.0721 36.6484 66.0721 36.6484C67.0602 39.5497 67.8686 41.0498 70.1681 42.6666C71.8029 43.8164 75.0636 42.8103 75.2881 41.0678C75.4768 39.6126 75.9618 35.4627 76.2941 32.4176C76.4469 31.0254 78.0457 30.5852 78.1266 29.0492C77.372 29.4444 76.5187 29.6511 75.6205 29.6511H75.6294Z" fill="#FEA6CC"/>
</svg>
