<?xml version="1.0" encoding="UTF-8"?><svg id="Layer_1" xmlns="http://www.w3.org/2000/svg" width="200" height="28.3781" viewBox="0 0 200 28.3781"><path d="M4.0938,2.2007C4.0938.9866,5.078.0024,6.2921.0024h8.9872c1.2141,0,2.1983.9842,2.1983,2.1983s-.9842,2.1983-2.1983,2.1983H6.2921c-1.2141,0-2.1983-.9842-2.1983-2.1983ZM15.2792,23.979H6.2921c-1.2141,0-2.1983.9842-2.1983,2.1983s.9842,2.1983,2.1983,2.1983h8.9872c1.2141,0,2.1983-.9842,2.1983-2.1983s-.9842-2.1983-2.1983-2.1983ZM21.373,10.1921c0-.8884-.528-1.6518-1.2864-1.9985.7584-.3467,1.2864-1.1101,1.2864-1.9985,0-1.2141-.9842-2.1983-2.1983-2.1983h-.9742c-1.2141,0-2.1983.9842-2.1983,2.1983,0,.8884.528,1.6518,1.2864,1.9985-.7584.3467-1.2864,1.1101-1.2864,1.9985s.528,1.6518,1.2864,1.9985c-.7584.3467-1.2864,1.1101-1.2864,1.9985s.528,1.6518,1.2864,1.9985c-.7584.3467-1.2864,1.1101-1.2864,1.9985s.528,1.6518,1.2864,1.9985c-.7584.3467-1.2864,1.1101-1.2864,1.9985,0,1.2141.9842,2.1983,2.1983,2.1983h.9742c1.2141,0,2.1983-.9842,2.1983-2.1983,0-.8884-.528-1.6518-1.2864-1.9985.7584-.3467,1.2864-1.1101,1.2864-1.9985s-.528-1.6518-1.2864-1.9985c.7584-.3467,1.2864-1.1101,1.2864-1.9985s-.528-1.6518-1.2864-1.9985c.7584-.3467,1.2864-1.1101,1.2864-1.9985ZM5.3708,22.1828c0-.8884-.528-1.6518-1.2864-1.9985.7584-.3467,1.2864-1.1101,1.2864-1.9985s-.528-1.6518-1.2864-1.9985c.7584-.3467,1.2864-1.1101,1.2864-1.9985s-.528-1.6518-1.2864-1.9985c.7584-.3467,1.2864-1.1101,1.2864-1.9985s-.528-1.6518-1.2864-1.9985c.7584-.3467,1.2864-1.1101,1.2864-1.9985,0-1.2141-.9842-2.1983-2.1983-2.1983h-.9742c-1.2141,0-2.1983.9842-2.1983,2.1983,0,.8884.528,1.6518,1.2864,1.9985-.7584.3467-1.2864,1.1101-1.2864,1.9985s.528,1.6518,1.2864,1.9985c-.7584.3467-1.2864,1.1101-1.2864,1.9985s.528,1.6518,1.2864,1.9985c-.7584.3467-1.2864,1.1101-1.2864,1.9985s.528,1.6518,1.2864,1.9985c-.7584.3467-1.2864,1.1101-1.2864,1.9985,0,1.2141.9842,2.1983,2.1983,2.1983h.9742c1.2141,0,2.1983-.9842,2.1983-2.1983ZM54.8131,4.399h8.9872c1.2141,0,2.1983-.9842,2.1983-2.1983S65.0143.0024,63.8002.0024h-8.9872c-1.2141,0-2.1983.9842-2.1983,2.1983s.9842,2.1983,2.1983,2.1983ZM63.8002,23.979h-8.9872c-1.2141,0-2.1983.9842-2.1983,2.1983s.9842,2.1983,2.1983,2.1983h8.9872c1.2141,0,2.1983-.9842,2.1983-2.1983s-.9842-2.1983-2.1983-2.1983ZM69.8941,10.1921c0-.8884-.528-1.6518-1.2864-1.9985.7584-.3467,1.2864-1.1101,1.2864-1.9985,0-1.2141-.9842-2.1983-2.1983-2.1983h-.9742c-1.2141,0-2.1983.9842-2.1983,2.1983,0,.8884.528,1.6518,1.2864,1.9985-.7584.3467-1.2864,1.1101-1.2864,1.9985s.528,1.6518,1.2864,1.9985c-.7584.3467-1.2864,1.1101-1.2864,1.9985s.528,1.6518,1.2864,1.9985c-.7584.3467-1.2864,1.1101-1.2864,1.9985s.528,1.6518,1.2864,1.9985c-.7584.3467-1.2864,1.1101-1.2864,1.9985,0,1.2141.9842,2.1983,2.1983,2.1983h.9742c1.2141,0,2.1983-.9842,2.1983-2.1983,0-.8884-.528-1.6518-1.2864-1.9985.7584-.3467,1.2864-1.1101,1.2864-1.9985s-.528-1.6518-1.2864-1.9985c.7584-.3467,1.2864-1.1101,1.2864-1.9985s-.528-1.6518-1.2864-1.9985c.7584-.3467,1.2864-1.1101,1.2864-1.9985ZM53.8919,22.1828c0-.8884-.528-1.6518-1.2864-1.9985.7584-.3467,1.2864-1.1101,1.2864-1.9985s-.528-1.6518-1.2864-1.9985c.7584-.3467,1.2864-1.1101,1.2864-1.9985s-.528-1.6518-1.2864-1.9985c.7584-.3467,1.2864-1.1101,1.2864-1.9985s-.528-1.6518-1.2864-1.9985c.7584-.3467,1.2864-1.1101,1.2864-1.9985,0-1.2141-.9842-2.1983-2.1983-2.1983h-.9742c-1.2141,0-2.1983.9842-2.1983,2.1983,0,.8884.528,1.6518,1.2864,1.9985-.7584.3467-1.2864,1.1101-1.2864,1.9985s.528,1.6518,1.2864,1.9985c-.7584.3467-1.2864,1.1101-1.2864,1.9985s.528,1.6518,1.2864,1.9985c-.7584.3467-1.2864,1.1101-1.2864,1.9985s.528,1.6518,1.2864,1.9985c-.7584.3467-1.2864,1.1101-1.2864,1.9985,0,1.2141.9842,2.1983,2.1983,2.1983h.9742c1.2141,0,2.1983-.9842,2.1983-2.1983ZM107.0798,4.399h8.9872c1.2141,0,2.1983-.9842,2.1983-2.1983S117.2811.0024,116.067.0024h-8.9872c-1.2141,0-2.1983.9842-2.1983,2.1983s.9842,2.1983,2.1983,2.1983ZM116.067,23.979h-8.9872c-1.2141,0-2.1983.9842-2.1983,2.1983s.9842,2.1983,2.1983,2.1983h8.9872c1.2141,0,2.1983-.9842,2.1983-2.1983s-.9842-2.1983-2.1983-2.1983ZM122.1608,10.1921c0-.8884-.528-1.6518-1.2864-1.9985.7584-.3467,1.2864-1.1101,1.2864-1.9985,0-1.2141-.9842-2.1983-2.1983-2.1983h-.9742c-1.2141,0-2.1983.9842-2.1983,2.1983,0,.8884.528,1.6518,1.2864,1.9985-.7584.3467-1.2864,1.1101-1.2864,1.9985s.528,1.6518,1.2864,1.9985c-.7584.3467-1.2864,1.1101-1.2864,1.9985s.528,1.6518,1.2864,1.9985c-.7584.3467-1.2864,1.1101-1.2864,1.9985s.528,1.6518,1.2864,1.9985c-.7584.3467-1.2864,1.1101-1.2864,1.9985,0,1.2141.9842,2.1983,2.1983,2.1983h.9742c1.2141,0,2.1983-.9842,2.1983-2.1983,0-.8884-.528-1.6518-1.2864-1.9985.7584-.3467,1.2864-1.1101,1.2864-1.9985s-.528-1.6518-1.2864-1.9985c.7584-.3467,1.2864-1.1101,1.2864-1.9985s-.528-1.6518-1.2864-1.9985c.7584-.3467,1.2864-1.1101,1.2864-1.9985ZM106.1586,22.1828c0-.8884-.528-1.6518-1.2864-1.9985.7584-.3467,1.2864-1.1101,1.2864-1.9985s-.528-1.6518-1.2864-1.9985c.7584-.3467,1.2864-1.1101,1.2864-1.9985s-.528-1.6518-1.2864-1.9985c.7584-.3467,1.2864-1.1101,1.2864-1.9985s-.528-1.6518-1.2864-1.9985c.7584-.3467,1.2864-1.1101,1.2864-1.9985,0-1.2141-.9842-2.1983-2.1983-2.1983h-.9742c-1.2141,0-2.1983.9842-2.1983,2.1983,0,.8884.528,1.6518,1.2864,1.9985-.7584.3467-1.2864,1.1101-1.2864,1.9985s.528,1.6518,1.2864,1.9985c-.7584.3467-1.2864,1.1101-1.2864,1.9985s.528,1.6518,1.2864,1.9985c-.7584.3467-1.2864,1.1101-1.2864,1.9985s.528,1.6518,1.2864,1.9985c-.7584.3467-1.2864,1.1101-1.2864,1.9985,0,1.2141.9842,2.1983,2.1983,2.1983h.9742c1.2141,0,2.1983-.9842,2.1983-2.1983ZM159.1665,4.399h8.9872c1.2141,0,2.1983-.9842,2.1983-2.1983S169.3678.0024,168.1537.0024h-8.9872c-1.2141,0-2.1983.9842-2.1983,2.1983s.9842,2.1983,2.1983,2.1983ZM168.1537,23.979h-8.9872c-1.2141,0-2.1983.9842-2.1983,2.1983s.9842,2.1983,2.1983,2.1983h8.9872c1.2141,0,2.1983-.9842,2.1983-2.1983s-.9842-2.1983-2.1983-2.1983ZM174.2475,10.1921c0-.8884-.528-1.6518-1.2864-1.9985.7584-.3467,1.2864-1.1101,1.2864-1.9985,0-1.2141-.9842-2.1983-2.1983-2.1983h-.9742c-1.2141,0-2.1983.9842-2.1983,2.1983,0,.8884.528,1.6518,1.2864,1.9985-.7584.3467-1.2864,1.1101-1.2864,1.9985s.528,1.6518,1.2864,1.9985c-.7584.3467-1.2864,1.1101-1.2864,1.9985s.528,1.6518,1.2864,1.9985c-.7584.3467-1.2864,1.1101-1.2864,1.9985s.528,1.6518,1.2864,1.9985c-.7584.3467-1.2864,1.1101-1.2864,1.9985,0,1.2141.9842,2.1983,2.1983,2.1983h.9742c1.2141,0,2.1983-.9842,2.1983-2.1983,0-.8884-.528-1.6518-1.2864-1.9985.7584-.3467,1.2864-1.1101,1.2864-1.9985s-.528-1.6518-1.2864-1.9985c.7584-.3467,1.2864-1.1101,1.2864-1.9985s-.528-1.6518-1.2864-1.9985c.7584-.3467,1.2864-1.1101,1.2864-1.9985ZM158.2453,22.1828c0-.8884-.528-1.6518-1.2864-1.9985.7584-.3467,1.2864-1.1101,1.2864-1.9985s-.528-1.6518-1.2864-1.9985c.7584-.3467,1.2864-1.1101,1.2864-1.9985s-.528-1.6518-1.2864-1.9985c.7584-.3467,1.2864-1.1101,1.2864-1.9985s-.528-1.6518-1.2864-1.9985c.7584-.3467,1.2864-1.1101,1.2864-1.9985,0-1.2141-.9842-2.1983-2.1983-2.1983h-.9742c-1.2141,0-2.1983.9842-2.1983,2.1983,0,.8884.528,1.6518,1.2864,1.9985-.7584.3467-1.2864,1.1101-1.2864,1.9985s.528,1.6518,1.2864,1.9985c-.7584.3467-1.2864,1.1101-1.2864,1.9985s.528,1.6518,1.2864,1.9985c-.7584.3467-1.2864,1.1101-1.2864,1.9985s.528,1.6518,1.2864,1.9985c-.7584.3467-1.2864,1.1101-1.2864,1.9985,0,1.2141.9842,2.1983,2.1983,2.1983h.9742c1.2141,0,2.1983-.9842,2.1983-2.1983ZM184.919,4.399h8.9872c1.2141,0,2.1983-.9842,2.1983-2.1983S195.1203.0024,193.9062.0024h-8.9872c-1.2141,0-2.1983.9842-2.1983,2.1983s.9842,2.1983,2.1983,2.1983ZM193.9062,23.979h-8.9872c-1.2141,0-2.1983.9842-2.1983,2.1983s.9842,2.1983,2.1983,2.1983h8.9872c1.2141,0,2.1983-.9842,2.1983-2.1983s-.9842-2.1983-2.1983-2.1983ZM184.919,12.006c-1.2141,0-2.1983.9842-2.1983,2.1983s.9842,2.1983,2.1983,2.1983h8.9872c1.2141,0,2.1983-.9842,2.1983-2.1983s-.9842-2.1983-2.1983-2.1983h-8.9872ZM194.6292,6.1952c0,1.2141.9842,2.1983,2.1983,2.1983h.9742c1.2141,0,2.1983-.9842,2.1983-2.1983s-.9842-2.1983-2.1983-2.1983h-.9742c-1.2141,0-2.1983.9842-2.1983,2.1983ZM200,18.1859c0-1.2141-.9842-2.1983-2.1983-2.1983h-.9742c-1.2141,0-2.1983.9842-2.1983,2.1983,0,.8884.528,1.6518,1.2864,1.9985-.7584.3467-1.2864,1.1101-1.2864,1.9985,0,1.2141.9842,2.1983,2.1983,2.1983h.9742c1.2141,0,2.1983-.9842,2.1983-2.1983,0-.8884-.528-1.6518-1.2864-1.9985.7584-.3467,1.2864-1.1101,1.2864-1.9985ZM178.627,10.1921c0,1.2141.9842,2.1983,2.1983,2.1983h.9742c1.2141,0,2.1983-.9842,2.1983-2.1983,0-.8884-.528-1.6518-1.2864-1.9985.7584-.3467,1.2864-1.1101,1.2864-1.9985,0-1.2141-.9842-2.1983-2.1983-2.1983h-.9742c-1.2141,0-2.1983.9842-2.1983,2.1983,0,.8884.528,1.6518,1.2864,1.9985-.7584.3467-1.2864,1.1101-1.2864,1.9985ZM183.9978,22.1828c0-1.2141-.9842-2.1983-2.1983-2.1983h-.9742c-1.2141,0-2.1983.9842-2.1983,2.1983s.9842,2.1983,2.1983,2.1983h.9742c1.2141,0,2.1983-.9842,2.1983-2.1983ZM43.2988,0h-17.0596c-1.2141,0-2.1983.9842-2.1983,2.1983s.9842,2.1983,2.1983,2.1983h6.6772c-.566.3977-.9368,1.0543-.9368,1.7986,0,.8884.528,1.6518,1.2864,1.9985-.7584.3467-1.2864,1.1101-1.2864,1.9985s.528,1.6518,1.2864,1.9985c-.7584.3467-1.2864,1.1101-1.2864,1.9985s.528,1.6518,1.2864,1.9985c-.7584.3467-1.2864,1.1101-1.2864,1.9985s.528,1.6518,1.2864,1.9985c-.7584.3467-1.2864,1.1101-1.2864,1.9985s.528,1.6518,1.2864,1.9985c-.7584.3467-1.2864,1.1101-1.2864,1.9985,0,1.2141.9842,2.1983,2.1983,2.1983h.9742c1.2141,0,2.1983-.9842,2.1983-2.1983,0-.8884-.528-1.6518-1.2864-1.9985.7584-.3467,1.2864-1.1101,1.2864-1.9985s-.528-1.6518-1.2864-1.9985c.7584-.3467,1.2864-1.1101,1.2864-1.9985s-.528-1.6518-1.2864-1.9985c.7584-.3467,1.2864-1.1101,1.2864-1.9985s-.528-1.6518-1.2864-1.9985c.7584-.3467,1.2864-1.1101,1.2864-1.9985s-.528-1.6518-1.2864-1.9985c.7584-.3467,1.2864-1.1101,1.2864-1.9985,0-.7443-.3708-1.4009-.9368-1.7986h6.8852c1.2141,0,2.1983-.9842,2.1983-2.1983s-.9842-2.1983-2.1983-2.1983ZM148.4454,6.1966c0-.8882-.5279-1.6515-1.2861-1.9981.7582-.3466,1.2861-1.1099,1.2861-1.9981,0-1.2139-.984-2.1979-2.1979-2.1979h-.9741c-1.2139,0-2.1979.984-2.1979,2.1979,0,.7441.3708,1.4007.9366,1.7983h-2.7849c-1.2139,0-2.1979.984-2.1979,2.1979,0,.7435.3702,1.3995.9352,1.7972h-4.4112c.565-.3977.9352-1.0537.9352-1.7972,0-1.2139-.984-2.1979-2.1979-2.1979h-2.7848c.5658-.3976.9366-1.0542.9366-1.7983,0-1.2139-.984-2.1979-2.1979-2.1979h-.9741c-1.2139,0-2.1979.984-2.1979,2.1979,0,.8882.5279,1.6515,1.2861,1.9981-.7582.3466-1.2861,1.1099-1.2861,1.9981s.5279,1.6515,1.2862,1.9981c-.7582.3466-1.2862,1.1099-1.2862,1.9981s.5279,1.6515,1.2862,1.9981c-.7582.3466-1.2862,1.1099-1.2862,1.9981s.5279,1.6515,1.2862,1.9981c-.7582.3466-1.2862,1.1099-1.2862,1.9981s.5279,1.6515,1.2862,1.9981c-.7582.3466-1.2862,1.1099-1.2862,1.9981s.5279,1.6515,1.2862,1.9981c-.7582.3466-1.2862,1.1099-1.2862,1.9981,0,1.2139.984,2.1979,2.1979,2.1979h.9741c1.2139,0,2.1979-.984,2.1979-2.1979,0-.8882-.5279-1.6515-1.2862-1.9981.7582-.3466,1.2862-1.1099,1.2862-1.9981s-.5279-1.6515-1.2862-1.9981c.7582-.3466,1.2862-1.1099,1.2862-1.9981s-.5279-1.6515-1.2862-1.9981c.7582-.3466,1.2862-1.1099,1.2862-1.9981s-.5279-1.6515-1.2862-1.9981c.7582-.3466,1.2862-1.1099,1.2862-1.9981,0-.7441-.3708-1.4007-.9366-1.7983h2.4798c-.5652.3978-.9354,1.0539-.9354,1.7976,0,1.2141.9842,2.1983,2.1983,2.1983h.7623c-.5662.3977-.9372,1.0545-.9372,1.7989,0,1.2141.9842,2.1983,2.1983,2.1983h.9742c1.2141,0,2.1983-.9842,2.1983-2.1983,0-.7444-.371-1.4012-.9372-1.7989h.7623c1.2141,0,2.1983-.9842,2.1983-2.1983,0-.7437-.3703-1.3998-.9354-1.7976h2.4798c-.5658.3976-.9366,1.0542-.9366,1.7983,0,.8882.5279,1.6515,1.2862,1.9981-.7583.3466-1.2862,1.1099-1.2862,1.9981s.5279,1.6515,1.2862,1.9981c-.7583.3466-1.2862,1.1099-1.2862,1.9981s.5279,1.6515,1.2862,1.9981c-.7583.3466-1.2862,1.1099-1.2862,1.9981s.5279,1.6515,1.2862,1.9981c-.7583.3466-1.2862,1.1099-1.2862,1.9981,0,1.2139.984,2.1979,2.1979,2.1979h.9741c1.2139,0,2.1979-.984,2.1979-2.1979,0-.8882-.5279-1.6515-1.2862-1.9981.7582-.3466,1.2862-1.1099,1.2862-1.9981s-.5279-1.6515-1.2862-1.9981c.7582-.3466,1.2862-1.1099,1.2862-1.9981s-.5279-1.6515-1.2862-1.9981c.7582-.3466,1.2862-1.1099,1.2862-1.9981s-.5279-1.6515-1.2862-1.9981c.7582-.3466,1.2862-1.1099,1.2862-1.9981s-.5279-1.6515-1.2862-1.9981c.7582-.3466,1.2862-1.1099,1.2862-1.9981ZM83.9979,6.1966c0-1.2139-.984-2.1979-2.1979-2.1979h-2.7848c.5658-.3976.9366-1.0542.9366-1.7983C79.9518.9865,78.9677.0024,77.7538.0024h-.9741c-1.2139,0-2.1979.984-2.1979,2.1979,0,.8882.5279,1.6515,1.2861,1.9981-.7582.3466-1.2861,1.1099-1.2861,1.9981s.5279,1.6515,1.2862,1.9981c-.7582.3466-1.2862,1.1099-1.2862,1.9981s.5279,1.6515,1.2862,1.9981c-.7582.3466-1.2862,1.1099-1.2862,1.9981s.5279,1.6515,1.2862,1.9981c-.7582.3466-1.2862,1.1099-1.2862,1.9981s.5279,1.6515,1.2862,1.9981c-.7582.3466-1.2862,1.1099-1.2862,1.9981s.5279,1.6515,1.2862,1.9981c-.7582.3466-1.2862,1.1099-1.2862,1.9981,0,1.2139.984,2.1979,2.1979,2.1979h.9741c1.2139,0,2.1979-.984,2.1979-2.1979,0-.8882-.5279-1.6515-1.2862-1.9981.7582-.3466,1.2862-1.1099,1.2862-1.9981s-.5279-1.6515-1.2862-1.9981c.7582-.3466,1.2862-1.1099,1.2862-1.9981s-.5279-1.6515-1.2862-1.9981c.7582-.3466,1.2862-1.1099,1.2862-1.9981s-.5279-1.6515-1.2862-1.9981c.7582-.3466,1.2862-1.1099,1.2862-1.9981,0-.7441-.3708-1.4007-.9366-1.7983h2.7849c1.2139,0,2.1979-.984,2.1979-2.1979ZM95.9549,6.1966c0-.8882-.5279-1.6515-1.2861-1.9981.7582-.3466,1.2861-1.1099,1.2861-1.9981C95.9549.9865,94.9709.0024,93.757.0024h-.9741c-1.2139,0-2.1979.984-2.1979,2.1979,0,.8882.5279,1.6515,1.2862,1.9981-.7582.3466-1.2862,1.1099-1.2862,1.9981s.5279,1.6515,1.2862,1.9981c-.7583.3466-1.2862,1.1099-1.2862,1.9981,0,.7441.3708,1.4007.9366,1.7983h-2.7849c-1.2139,0-2.1979.984-2.1979,2.1979s.984,2.1979,2.1979,2.1979h2.7849c-.5658.3976-.9366,1.0542-.9366,1.7983,0,.8882.5279,1.6515,1.2862,1.9981-.7583.3466-1.2862,1.1099-1.2862,1.9981s.5279,1.6515,1.2862,1.9981c-.7583.3466-1.2862,1.1099-1.2862,1.9981,0,1.2139.984,2.1979,2.1979,2.1979h.9741c1.2139,0,2.1979-.984,2.1979-2.1979,0-.8882-.5279-1.6515-1.2862-1.9981.7582-.3466,1.2862-1.1099,1.2862-1.9981s-.5279-1.6515-1.2862-1.9981c.7582-.3466,1.2862-1.1099,1.2862-1.9981s-.5279-1.6515-1.2862-1.9981c.7582-.3466,1.2862-1.1099,1.2862-1.9981s-.5279-1.6515-1.2862-1.9981c.7582-.3466,1.2862-1.1099,1.2862-1.9981s-.5279-1.6515-1.2862-1.9981c.7582-.3466,1.2862-1.1099,1.2862-1.9981ZM87.9538,10.1931c0-1.2141-.9842-2.1983-2.1983-2.1983h-.9742c-1.2141,0-2.1983.9842-2.1983,2.1983s.9842,2.1983,2.1983,2.1983h.9742c1.2141,0,2.1983-.9842,2.1983-2.1983Z"/></svg>