<?xml version="1.0" encoding="UTF-8"?>
<svg id="Layer_1" xmlns="http://www.w3.org/2000/svg" width="98" height="64" xmlns:xlink="http://www.w3.org/1999/xlink" version="1.1" viewBox="0 0 98 64">
  <!-- Generator: Adobe Illustrator 29.7.1, SVG Export Plug-In . SVG Version: 2.1.1 Build 8)  -->
  <defs>
    <mask id="mask" x="36.3216" y="2.7923" width="62.0137" height="64.135" maskUnits="userSpaceOnUse">
      <g id="path-1-outside-1_383_4060">
        <rect x="36.3216" y="2.7923" width="62.0137" height="64.135" fill="#fff"/>
        <path d="M47.6403,15.6082c1.7153-6.4016,8.2953-10.2006,14.6969-8.4853l23.1822,6.2116c6.4016,1.7153,10.2006,8.2954,8.4853,14.697l-6.2117,23.1822c-1.7153,6.4016-8.2953,10.2006-14.6969,8.4853l-23.1822-6.2117c-6.4016-1.7153-10.2006-8.2953-8.4853-14.6969l6.2117-23.1822Z"/>
      </g>
    </mask>
    <mask id="mask-1" x="-1.2839" y="-.8138" width="62.0137" height="64.135" maskUnits="userSpaceOnUse">
      <g id="path-4-outside-2_383_4060">
        <rect x="-1.2839" y="-.8138" width="62.0137" height="64.135" fill="#fff"/>
        <path d="M10.0348,12.002c1.7153-6.4016,8.2953-10.2005,14.6969-8.4852l23.1823,6.2117c6.4015,1.7153,10.2005,8.2954,8.4852,14.6969l-6.2116,23.1823c-1.7153,6.4016-8.2954,10.2005-14.697,8.4852l-23.1822-6.2116c-6.4016-1.7153-10.2006-8.2954-8.4853-14.697l6.2117-23.1822Z"/>
      </g>
    </mask>
  </defs>
  <path d="M47.6403,15.6082c1.7153-6.4016,8.2953-10.2006,14.6969-8.4853l23.1822,6.2116c6.4016,1.7153,10.2006,8.2954,8.4853,14.697l-6.2117,23.1822c-1.7153,6.4016-8.2953,10.2006-14.6969,8.4853l-23.1822-6.2117c-6.4016-1.7153-10.2006-8.2953-8.4853-14.6969l6.2117-23.1822Z" fill="#f0f69b"/>
  <g mask="url(#mask)">
    <path d="M46.6743,15.3493c1.8583-6.935,8.9867-11.0506,15.9217-9.1924l23.1822,6.2116c6.9351,1.8582,11.0507,8.9866,9.1924,15.9217l-1.9318-.5177c1.5723-5.8681-1.9101-11.8998-7.7782-13.4721l-23.1822-6.2117c-5.8681-1.5724-11.8998,1.91-13.4722,7.7782l-1.9319-.5177ZM87.9825,54.3703c-1.8582,6.935-8.9866,11.0506-15.9217,9.1924l-23.1822-6.2117c-6.935-1.8582-11.0506-8.9866-9.1924-15.9217l2.7083-2.3801c-1.1435,4.2677,2.6865,9.002,8.5547,10.5744l23.1822,6.2117c5.8681,1.5723,11.5522-.6127,12.6957-4.8804l1.1554,3.4154ZM48.8786,57.351c-6.935-1.8582-11.0506-8.9866-9.1924-15.9217l6.9881-26.08c1.8583-6.935,8.9867-11.0506,15.9217-9.1924l-.5176,1.9319c-5.8681-1.5724-11.8998,1.91-13.4722,7.7782l-6.2117,23.1822c-1.1435,4.2677,2.6865,9.002,8.5547,10.5744l-2.0706,7.7274ZM85.7782,12.3686c6.9351,1.8582,11.0507,8.9866,9.1924,15.9217l-6.9881,26.08c-1.8582,6.935-8.9866,11.0506-15.9217,9.1924l2.0706-7.7274c5.8681,1.5723,11.5522-.6127,12.6957-4.8804l6.2117-23.1823c1.5723-5.8681-1.9101-11.8998-7.7782-13.4721l.5176-1.9319Z" fill="#232323"/>
  </g>
  <path d="M74.806,35.3821l-7.9698,2.4602-5.8354-5.9773,9.9243-10.0853,3.8809,13.6024ZM66.4832,39.1968l-5.8355-5.9772,4.3487,11.8163,9.4666-8.2994-7.9798,2.4603Z" fill="#232323"/>
  <path d="M10.0348,12.002c1.7153-6.4016,8.2953-10.2005,14.6969-8.4852l23.1823,6.2117c6.4015,1.7153,10.2005,8.2954,8.4852,14.6969l-6.2116,23.1823c-1.7153,6.4016-8.2954,10.2005-14.697,8.4852l-23.1822-6.2116c-6.4016-1.7153-10.2006-8.2954-8.4853-14.697l6.2117-23.1822Z" fill="#b3d8f5"/>
  <g mask="url(#mask-1)">
    <path d="M9.0689,11.7432C10.9271,4.8081,18.0555.6926,24.9906,2.5508l23.1822,6.2117c6.935,1.8582,11.0506,8.9866,9.1924,15.9217l-1.9319-.5177c1.5724-5.8681-1.91-11.8998-7.7782-13.4722l-23.1822-6.2116c-5.8681-1.5724-11.8998,1.9101-13.4722,7.7781l-1.9318-.5176ZM50.377,50.7642c-1.8582,6.935-8.9866,11.0506-15.9216,9.1923l-23.1823-6.2116c-6.935-1.8583-11.0506-8.9866-9.1923-15.9217l2.7083-2.3801c-1.1435,4.2677,2.6865,9.002,8.5546,10.5744l23.1822,6.2116c5.8681,1.5724,11.5522-.6126,12.6958-4.8804l1.1553,3.4155ZM11.2731,53.7449c-6.935-1.8583-11.0506-8.9866-9.1923-15.9217l6.9881-26.08C10.9271,4.8081,18.0555.6926,24.9906,2.5508l-.5177,1.9318c-5.8681-1.5724-11.8998,1.9101-13.4722,7.7781l-6.2116,23.1823c-1.1435,4.2677,2.6865,9.002,8.5546,10.5744l-2.0706,7.7274ZM48.1728,8.7625c6.935,1.8582,11.0506,8.9866,9.1924,15.9217l-6.9882,26.08c-1.8582,6.935-8.9866,11.0506-15.9216,9.1923l2.0705-7.7274c5.8681,1.5724,11.5522-.6126,12.6958-4.8804l6.2116-23.1822c1.5724-5.8681-1.91-11.8998-7.7782-13.4722l.5177-1.9318Z" fill="#232323"/>
  </g>
  <path d="M40.7898,22.2373l3.3625.8523-8.7475,5.1648c-3.1638,1.8652-7.2789.8335-9.1839-2.3197l-5.2541-8.6962,3.3624.8523,3.9843,6.604c1.2084,1.993,3.798,2.6463,5.8115,1.4676l6.655-3.915.0098-.0101Z" fill="#232323"/>
  <path d="M19.4314,37.3423l-3.3625-.8523,8.8071-5.1957c3.1638-1.8651,7.2789-.8335,9.1839,2.3197l5.285,8.7558-3.3625-.8523-4.0251-6.6635c-1.2084-1.993-3.798-2.6462-5.8114-1.4675l-6.7045,3.9557h-.01Z" fill="#232323"/>
</svg>