<svg width="40" height="43" viewBox="0 0 40 43" fill="none" xmlns="http://www.w3.org/2000/svg">
<path d="M11.754 42.5066C6.95979 42.5066 2.8575 38.7503 2.41268 33.9561L0.880493 16.2124C0.633367 13.6917 1.42417 11.2699 3.00578 9.34231C4.63681 7.41473 6.91038 6.27795 9.38164 6.03083L27.1253 4.49864C27.4218 4.46569 27.7019 4.44922 27.9655 4.44922C32.7598 4.44922 36.8621 8.20553 37.3069 12.9998L38.8391 30.7434C39.0862 33.2641 38.2954 35.686 36.7138 37.6135C35.0827 39.5411 32.8092 40.6779 30.3379 40.925L12.5943 42.4572C12.3307 42.4902 12.0506 42.5066 11.754 42.5066Z" fill="#232323"/>
<path fill-rule="evenodd" clip-rule="evenodd" d="M37.7995 12.9979L39.3316 30.6922C39.8259 36.1289 35.8224 40.9232 30.3363 41.4174L12.642 42.9496C12.3455 42.9826 12.0489 42.999 11.7524 42.999C6.71099 42.999 2.36158 39.1439 1.91675 33.9542L0.384565 16.26C-0.109687 10.8232 3.94319 6.02898 9.37996 5.53473L27.0742 4.00255C27.3707 3.9696 27.6673 3.95312 27.9638 3.95312C33.0052 3.95312 37.3546 7.80829 37.7995 12.9979ZM27.173 4.99105L9.42938 6.52324C7.05697 6.72094 4.93169 7.85772 3.39951 9.68645C1.86732 11.4658 1.17537 13.7887 1.37307 16.1612L2.90525 33.9048C3.30066 38.4519 7.20524 42.0105 11.7524 42.0105C12.016 42.0105 12.2796 41.9941 12.5432 41.9611L30.2868 40.4289C32.6592 40.2312 34.7845 39.0945 36.3167 37.2657C37.8489 35.437 38.5903 33.1634 38.3431 30.791L36.811 13.0474C36.4156 8.50024 32.511 4.94163 27.9638 4.94163C27.7002 4.94163 27.4366 4.9581 27.173 4.99105Z" fill="#232323"/>
<path d="M11.4102 38.5535C6.61596 38.5535 2.51367 34.7972 2.06884 30.0029L0.536656 12.2593C0.28953 9.78803 1.08034 7.31677 2.71137 5.43862C4.29298 3.51103 6.56653 2.32483 9.08722 2.0777L26.7814 0.545519C27.078 0.512569 27.3581 0.496094 27.6217 0.496094C32.4159 0.496094 36.5182 4.25241 36.963 9.09608L38.4952 26.7903C38.7423 29.311 37.9516 31.7328 36.3699 33.6604C34.7389 35.588 32.4653 36.7742 29.9941 36.9719L12.2504 38.5535C11.9868 38.5535 11.7068 38.5535 11.4102 38.5535Z" fill="#FEA6CC"/>
<path fill-rule="evenodd" clip-rule="evenodd" d="M37.4557 9.04481L38.9879 26.739C39.4821 32.2252 35.4787 37.0195 30.0419 37.4643L12.2983 39.0459C12.0017 39.0459 11.7052 39.0459 11.4086 39.0459C6.36724 39.0459 2.01783 35.1908 1.573 30.0505L0.0408151 12.3069C-0.453437 6.87011 3.59943 2.07586 9.0362 1.58161L26.7304 0.0494252C27.027 0.0164751 27.3235 0 27.6201 0C32.7109 0 37.0109 3.90459 37.4557 9.04481ZM26.8293 1.03793L9.08563 2.57011C6.71322 2.81724 4.58794 3.90459 3.05576 5.73333C1.52357 7.56206 0.831619 9.83562 1.02932 12.208L2.5615 29.9517C2.95691 34.4988 6.86149 38.0574 11.4086 38.0574C11.6722 38.0574 11.9358 38.0574 12.1994 38.0574L29.9431 36.4758C34.8362 36.0804 38.4442 31.731 37.9994 26.8379L36.4672 9.14367C36.0718 4.54712 32.1672 0.988504 27.6201 0.988504C27.3565 0.988504 27.0929 1.00498 26.8293 1.03793Z" fill="#232323"/>
<path d="M12.0494 17.296L16.4483 16.9006L13.0379 14.2317L14.6195 12.3535L17.8322 15.0719L17.4862 10.7719L20.0563 10.5742L20.4023 14.8742L23.1207 11.5627L24.9988 13.1938L22.1322 16.4064L26.531 16.011L26.7287 18.4823L22.3299 18.8282L25.7402 21.596L24.1586 23.4742L19.5126 19.5696L15.6575 24.2156L13.7793 22.634L16.646 19.3719L12.2471 19.7179L12 17.296H12.0494ZM18.5241 22.6834L21.0942 22.4857L21.6379 28.2684L19.0184 28.5156L18.5241 22.6834Z" fill="#232323"/>
</svg>
