<svg width="18" height="15" viewBox="0 0 18 15" fill="none" xmlns="http://www.w3.org/2000/svg">
<path fill-rule="evenodd" clip-rule="evenodd" d="M1.48917 6.46289C6.15324 4.41768 9.27093 3.09578 10.8422 2.4473C15.2818 0.601624 16.2047 0.277383 16.8033 0.252441C16.928 0.252441 17.2273 0.277383 17.4268 0.427032C17.5765 0.55174 17.6263 0.726331 17.6513 0.851039C17.6762 0.975747 17.7012 1.2501 17.6762 1.47458C17.4268 3.99367 16.4042 10.1542 15.8555 12.9726C15.631 14.1698 15.1821 14.5689 14.7581 14.6188C13.8352 14.6936 13.1119 13.9952 12.214 13.4216C10.8173 12.4987 10.0192 11.9251 8.64739 11.0272C7.07607 9.97964 8.09868 9.40599 8.99657 8.48315C9.22105 8.23374 13.3364 4.51745 13.4112 4.16826C13.4112 4.11838 13.4362 3.96873 13.3364 3.89391C13.2366 3.81908 13.1119 3.84402 13.0122 3.86897C12.8625 3.89391 10.6178 5.3904 6.253 8.3335C5.60452 8.78245 5.03087 8.98198 4.50709 8.98198C3.93344 8.98198 2.83601 8.65774 2.01294 8.38338C1.01528 8.05914 0.217149 7.88455 0.291974 7.33584C0.341857 7.06148 0.740921 6.76218 1.48917 6.46289Z" fill="black"/>
</svg>
