<?xml version="1.0" encoding="UTF-8"?><svg id="Layer_1" xmlns="http://www.w3.org/2000/svg" width="39.8501" height="43.4863" viewBox="0 0 39.8501 43.4863"><path d="M11.9065,42.986c-4.875,0-9.0269-3.8096-9.4521-8.6724L.8855,16.3825c-.2212-2.5283.5552-4.9907,2.1865-6.9346,1.6309-1.9443,3.9214-3.1362,6.4492-3.3574l17.9312-1.5688c.2817-.0244.5625-.0366.8398-.0366,4.875,0,9.0269,3.8096,9.4521,8.6724l1.5688,17.9316c.2212,2.5278-.5552,4.9907-2.1865,6.9346-1.6309,1.9438-3.9214,3.1362-6.4492,3.3574l-17.9312,1.5684c-.2817.0244-.5625.0366-.8398.0366Z" fill="#232323"/><path d="M28.2929,4.9848c4.6173.0004,8.5505,3.6093,8.9536,8.2162l1.5688,17.9315c.2095,2.3948-.5261,4.7279-2.0714,6.5695-1.5452,1.8416-3.7152,2.9711-6.11,3.1807l-17.9315,1.5688c-.2644.0231-.5321.0349-.7958.0349-4.618,0-8.5512-3.609-8.9543-8.2162l-1.5688-17.9315c-.2095-2.3948.5261-4.7279,2.0714-6.5695,1.5453-1.8416,3.7152-2.9711,6.11-3.1807l17.9315-1.5688c.2642-.0231.5322-.0348.7966-.0349M28.2922,3.9848c-.2918,0-.5868.0127-.883.0387l-17.9315,1.5688C3.9758,6.0736-.0941,10.9239.3873,16.4257l1.5688,17.9315c.4554,5.2057,4.8214,9.129,9.9505,9.129.2918,0,.5868-.0127.883-.0387l17.9315-1.5688c5.5018-.4813,9.5717-5.3317,9.0904-10.8335l-1.5688-17.9315c-.4554-5.2057-4.8214-9.1294-9.9505-9.129h0Z" fill="#232323"/><path d="M11.5588,39.0016c-4.8755,0-9.0278-3.8096-9.4531-8.6724L.5369,12.3976c-.2212-2.5278.5552-4.9907,2.1865-6.9346,1.6309-1.9438,3.9214-3.1362,6.4492-3.3574L27.1038.5368c.2817-.0244.5625-.0366.8398-.0366,4.875,0,9.0269,3.8096,9.4526,8.6724l1.5684,17.9316c.2212,2.5278-.5552,4.9907-2.1865,6.9346-1.6309,1.9438-3.9214,3.1362-6.4492,3.3574l-17.9312,1.5688c-.2817.0244-.5615.0366-.8389.0366Z" fill="#fea6cc"/><path d="M27.9443,1c4.6173.0004,8.5505,3.6093,8.9536,8.2162l1.5688,17.9315c.2095,2.3948-.5261,4.7279-2.0714,6.5695-1.5452,1.8416-3.7152,2.9711-6.11,3.1807l-17.9315,1.5688c-.2644.0231-.5321.0349-.7958.0349-4.618,0-8.5512-3.609-8.9543-8.2162L1.0348,12.3538c-.2095-2.3948.5261-4.7279,2.0714-6.5695,1.5453-1.8416,3.7152-2.9711,6.11-3.1807l17.9315-1.5688c.2642-.0231.5322-.0348.7966-.0349M27.9435,0c-.2918,0-.5868.0127-.883.0387L9.129,1.6075C3.6272,2.0888-.4427,6.9391.0387,12.441l1.5688,17.9315c.4554,5.2056,4.8214,9.129,9.9505,9.129.2918,0,.5868-.0127.883-.0387l17.9315-1.5688c5.5018-.4813,9.5717-5.3317,9.0904-10.8335l-1.5688-17.9315C37.4386,3.9234,33.0726-.0004,27.9435,0h0Z" fill="#232323"/><path id="Path-3" d="M11.9273,19.3944c4.63-2.5183,7.7187-4.1816,9.2663-4.9901,4.4186-2.3084,5.3424-2.7231,5.9625-2.7883.1364-.0144.4447-.0072.6566.136.1789.1209.2409.3.2741.4266s.0862.4169.0845.6476c-.0201,2.6326-.5409,9.0625-.8321,12.0346-.1232,1.2576-.5426,1.7123-.9803,1.7915-.9511.1721-1.7424-.4861-2.7244-1.0136-1.5366-.8255-2.4094-1.3466-3.9014-2.1528-1.7242-.9317-.7191-1.6146.1256-2.6608.221-.2738,4.1096-4.4861,4.1609-4.8419.0064-.0445.0017-.2078-.1024-.2852s-.244-.0356-.3448-.0032c-.1429.0458-2.3302,1.7834-6.5619,5.2127-.6194.5101-1.197.7828-1.7327.8181-.5907.0388-1.7528-.1825-2.6198-.3828-1.0634-.2457-1.9008-.3515-1.8792-.9286.0113-.3006.3941-.6405,1.1485-1.0197h0Z" fill="#232323" fill-rule="evenodd"/></svg>