<?xml version="1.0" encoding="UTF-8"?><svg id="Layer_1" xmlns="http://www.w3.org/2000/svg" width="39.8501" height="43.4863" viewBox="0 0 39.8501 43.4863"><path d="M27.944,42.986c-.2783,0-.5576-.0122-.8398-.0366l-17.9316-1.5684c-2.5278-.2212-4.8184-1.4136-6.4492-3.3574-1.6313-1.9438-2.4077-4.4067-2.1865-6.9346l1.5688-17.9316c.4258-4.8628,4.5776-8.6724,9.4521-8.6724.2778,0,.5576.0122.8398.0366l17.9312,1.5688c2.5283.2212,4.8184,1.4131,6.4492,3.3574,1.6309,1.9438,2.4072,4.4062,2.1865,6.9346l-1.5684,17.9312c-.4258,4.8628-4.5771,8.6724-9.4521,8.6724Z" fill="#232323"/><path d="M11.558,4.9848h0c.2637,0,.5315.0117.7958.0349l17.9315,1.5688c4.9437.4325,8.6139,4.8064,8.1814,9.7502l-1.5688,17.9315c-.4031,4.6072-4.3363,8.2162-8.9543,8.2162-.2637,0-.5315-.0117-.7958-.0349l-17.9315-1.5688c-2.3948-.2095-4.5648-1.3391-6.11-3.1807-1.5453-1.8416-2.2809-4.1747-2.0714-6.5695l1.5688-17.9315c.4031-4.6071,4.3363-8.2161,8.9543-8.2162M11.558,3.9848c-5.1287.0002-9.4951,3.9237-9.9505,9.129L.0387,31.0453c-.4813,5.5018,3.5886,10.3522,9.0904,10.8335l17.9315,1.5688c.2965.0259.5908.0387.883.0387,5.1287,0,9.4951-3.9237,9.9505-9.129l1.5688-17.9315c.4814-5.5018-3.5886-10.3522-9.0904-10.8335l-17.9315-1.5688c-.2965-.0259-.5908-.0387-.883-.0387h0Z" fill="#232323"/><path d="M28.2916,39.0016c-.2773,0-.5566-.0122-.8389-.0366l-17.9316-1.5688c-2.5278-.2212-4.8184-1.4136-6.4492-3.3574-1.6313-1.9438-2.4077-4.4067-2.1865-6.9346l1.5688-17.9316C2.88,4.3097,7.0319.5001,11.9064.5001c.2778,0,.5576.0122.8398.0366l17.9312,1.5688c2.5283.2212,4.8184,1.4136,6.4492,3.3574s2.4072,4.4062,2.1865,6.9346l-1.5684,17.9316c-.4258,4.8628-4.5781,8.6724-9.4531,8.6724Z" fill="#fea6cc"/><path d="M11.9066,1h0c.2637,0,.5315.0117.7958.0349l17.9315,1.5688c4.9437.4325,8.6139,4.8064,8.1814,9.7502l-1.5688,17.9315c-.4031,4.6072-4.3363,8.2162-8.9543,8.2162-.2637,0-.5315-.0117-.7958-.0348l-17.9315-1.5688c-4.9437-.4325-8.6139-4.8064-8.1814-9.7502l1.5688-17.9315C3.3553,4.6091,7.2886,1.0001,11.9066,1M11.9066,0C6.7779.0002,2.4115,3.9237,1.9561,9.129L.3873,27.0605c-.4813,5.5018,3.5886,10.3522,9.0904,10.8335l17.9315,1.5688c.2965.0259.5908.0387.883.0387,5.1287,0,9.4951-3.9237,9.9505-9.129l1.5688-17.9315c.4813-5.5018-3.5886-10.3522-9.0904-10.8335L12.7896.0387C12.4931.0127,12.1987,0,11.9066,0h0Z" fill="#232323"/><path d="M25.9635,12.0971l2.7509.2407-6.609,6.3399,6.2507,9.9621-5.533-.4841-3.8411-6.0449-5.452,5.2318-2.7548-.241,7.0678-6.7827-6.0004-9.4573,5.6732.4963,3.4629,5.521,4.9846-4.7819ZM23.7229,26.5775l1.5235.1333-8.6968-13.8668-1.6365-.1432,8.8097,13.8767Z" fill="#232323"/></svg>